<?xml version="1.0" encoding="UTF-8" standalone="no"?>
<!-- Created with Inkscape (http://www.inkscape.org/) -->

<svg
   version="1.1"
   id="svg1"
   width="1160"
   height="1255"
   viewBox="0 0 1160 1255"
   sodipodi:docname="internet_condom1.svg"
   inkscape:version="1.4.2 (ebf0e940, 2025-05-08)"
   xmlns:inkscape="http://www.inkscape.org/namespaces/inkscape"
   xmlns:sodipodi="http://sodipodi.sourceforge.net/DTD/sodipodi-0.dtd"
   xmlns="http://www.w3.org/2000/svg"
   xmlns:svg="http://www.w3.org/2000/svg">
  <rect width="100%" height="100%" fill="white"/>
  <defs
     id="defs1" />
  <sodipodi:namedview
     id="namedview1"
     pagecolor="#ffffff"
     bordercolor="#000000"
     borderopacity="0.25"
     inkscape:showpageshadow="2"
     inkscape:pageopacity="0.0"
     inkscape:pagecheckerboard="0"
     inkscape:deskcolor="#d1d1d1"
     showgrid="false"
     inkscape:zoom="0.26113096"
     inkscape:cx="336.99566"
     inkscape:cy="497.83449"
     inkscape:window-width="1472"
     inkscape:window-height="893"
     inkscape:window-x="0"
     inkscape:window-y="34"
     inkscape:window-maximized="0"
     inkscape:current-layer="g4" />
  <g
     inkscape:groupmode="layer"
     inkscape:label="Image"
     id="g1"
     transform="translate(-552.764,-280.77959)">
    <g
       id="g4">
      <g
         id="g7"
         transform="translate(2.7653761,2.3136427)">
        <path
           style="fill:#252423"
           d="m 1453,1524.3653 c -4.125,-1.3802 -9.3,-2.8873 -11.5,-3.3491 -9.4717,-1.9881 -25.4981,-6.1313 -46.5,-12.0212 -4.125,-1.1569 -12.45,-3.242 -18.5,-4.6336 -17.5839,-4.0447 -38.6932,-10.6733 -41.4448,-13.0142 l -2.5306,-2.1529 3.9877,-1.7274 c 2.1932,-0.9501 5.7177,-2.5688 7.8322,-3.5972 2.1145,-1.0283 4.2914,-1.8697 4.8376,-1.8697 2.6033,0 23.0999,-11.0723 29.2682,-15.8107 l 6.9504,-5.3392 5.7523,0.6677 c 6.6567,0.7725 17.536,3.2479 30.347,6.9047 4.95,1.413 12.4788,3.3082 16.7307,4.2117 l 7.7307,1.6427 1.5193,-1.2609 c 0.9269,-0.7692 1.5193,-2.9332 1.5193,-5.5496 v -4.2886 l -3.0767,-2.5889 c -1.6922,-1.4239 -4.193,-2.5889 -5.5572,-2.5889 -4.7819,0 -31.3734,-7.6057 -31.3615,-8.97 0.01,-0.9589 6.0759,-7.03 7.0258,-7.03 0.511,0 2.6257,0.6338 4.6994,1.4084 2.0736,0.7747 7.9441,2.3594 13.0454,3.5217 l 9.2753,2.1133 1.8374,-0.9834 1.8374,-0.9834 -0.4918,-9.7883 c -0.2705,-5.3836 -1.1087,-11.0035 -1.8626,-12.4886 -2.1682,-4.271 -0.3461,-7.6332 5.342,-9.8569 1.2171,-0.4758 3.3603,-2.6826 4.7626,-4.904 1.4023,-2.2213 3.2219,-4.0388 4.0437,-4.0388 0.8217,0 2.4722,-1.125 3.6677,-2.5 5.2442,-6.0313 6.2937,0.064 14.4799,84.0982 l 0.5941,6.0982 -2.6797,8.4018 c -1.4738,4.621 -3.654,11.5518 -4.8449,15.4018 -3.3899,10.959 -3.8893,11.1639 -16.7363,6.8653 z m -270,-74.4375 c -9.6957,-2.7415 -18.4556,-4.8395 -28.5,-6.8257 -4.95,-0.9788 -11.925,-2.7184 -15.5,-3.8657 -3.575,-1.1474 -10.325,-3.081 -15,-4.297 -4.675,-1.2161 -11.0893,-3.0499 -14.254,-4.0752 -3.1647,-1.0253 -6.4717,-1.8642 -7.3489,-1.8642 -0.8771,0 -3.0128,-0.6519 -4.746,-1.4486 -1.7331,-0.7968 -5.4011,-1.8934 -8.1511,-2.437 -2.75,-0.5435 -8.15,-1.919 -12,-3.0565 -3.85,-1.1376 -9.025,-2.5686 -11.5,-3.1801 -2.475,-0.6114 -7.425,-1.9475 -11,-2.969 -3.575,-1.0215 -8.3,-2.1644 -10.5,-2.5399 -2.2,-0.3755 -5.4154,-1.2735 -7.1454,-1.9956 -1.73,-0.722 -5.555,-1.7437 -8.5,-2.2703 -5.1646,-0.9236 -7.7803,-1.6738 -21.8546,-6.2686 -3.575,-1.1671 -8.975,-2.7026 -12,-3.4121 -16.67928,-3.9122 -23.69145,-5.677 -35,-8.8086 -6.875,-1.9038 -15.65,-4.4354 -19.5,-5.6257 -3.85,-1.1902 -9.925,-2.7339 -13.5,-3.4302 -3.575,-0.6964 -8.65323,-2.0068 -11.28495,-2.912 -2.63172,-0.9052 -5.55672,-1.646 -6.5,-1.6463 -0.94328,-3e-4 -4.08238,-0.9003 -6.97578,-2 -2.8934,-1.0997 -6.0434,-2.0077 -7,-2.0177 -2.65271,-0.028 -8.98814,-4.7589 -16.73927,-12.5006 -3.85,-3.8452 -9.07801,-8.7891 -11.6178,-10.9863 -11.3735,-9.8393 -27.19351,-25.2373 -28.49529,-27.7351 -0.78547,-1.5071 -3.21885,-3.6537 -5.40752,-4.7703 L 829,1314.9594 v -1.9607 -1.9606 l 2.62519,-0.6589 c 1.44386,-0.3624 4.48136,-0.2093 6.75,0.3401 11.73548,2.8423 30.67213,7.7819 43.12481,11.2492 17.23025,4.7976 23.92047,6.5087 33.27239,8.5096 3.99981,0.8558 8.94981,2.2113 11,3.0122 2.05018,0.801 6.65261,2.1087 10.22761,2.9061 3.575,0.7974 10.325,2.5413 15,3.8754 4.675,1.3341 11.425,3.2083 15,4.1649 3.575,0.9567 9.65,2.6715 13.5,3.8107 3.85,1.1392 13.75,3.8086 22,5.9319 14.7684,3.8009 21.1267,5.5075 31,8.3203 2.75,0.7835 9.725,2.5953 15.5,4.0264 10.1725,2.5207 12.846,3.2758 31,8.7559 16.4239,4.9577 20.5354,6.0932 24.5,6.7659 2.2,0.3734 13.45,3.2618 25,6.4188 11.55,3.157 25.725,7.0202 31.5,8.585 5.775,1.5648 16.125,4.4489 23,6.4092 13.8353,3.9447 33.5844,9.2878 39,10.5514 1.925,0.4491 8,1.8126 13.5,3.03 5.5,1.2174 11.125,2.6573 12.5,3.1998 5.6522,2.2301 20.4564,6.758 22.0956,6.758 7.0553,0 5.3405,4.2498 -2.8148,6.9758 -3.7294,1.2467 -7.2308,2.5846 -7.7808,2.9732 -1.6536,1.1684 -9.6427,3.7934 -15.5,5.0928 -3.025,0.6711 -5.95,1.5608 -6.5,1.9772 -0.55,0.4164 -3.475,1.0892 -6.5,1.4952 -3.025,0.406 -9.775,2.0262 -15,3.6006 l -9.5,2.8624 -8.5,-0.1057 c -4.9045,-0.061 -11.2495,-0.8832 -15,-1.9437 z m 114.4276,-31.5969 c -3.2602,-0.7346 -9.3026,-2.0758 -13.4276,-2.9804 -12.0201,-2.6362 -37.3514,-9.4412 -72,-19.3424 -5.775,-1.6503 -12.75,-3.4623 -15.5,-4.0266 -5.3336,-1.0945 -15.8888,-3.912 -26.5,-7.0737 -3.575,-1.0652 -7.6317,-1.9303 -9.0148,-1.9223 -1.3832,0.01 -4.0832,-0.8171 -6,-1.8336 -1.9169,-1.0164 -5.5102,-2.1535 -7.9852,-2.5269 -2.475,-0.3734 -7.2,-1.5639 -10.5,-2.6455 -13.7611,-4.5106 -26.2824,-8.1917 -30.5,-8.9667 -11.3695,-2.089 -46.127,-11.2895 -54.5,-14.4264 -2.2,-0.8243 -5.0646,-1.5184 -6.3658,-1.5425 -2.1429,-0.04 -7.4638,-1.4909 -15.6342,-4.264 -1.65,-0.56 -5.475,-1.5786 -8.5,-2.2636 -3.025,-0.685 -7.6877,-1.9931 -10.3615,-2.9069 -2.6738,-0.9137 -10.0988,-3.0335 -16.49999,-4.7106 -14.80073,-3.8777 -32.51131,-8.5226 -42.13851,-11.0516 -4.125,-1.0836 -9.3,-2.3534 -11.5,-2.8218 -2.2,-0.4683 -6.025,-1.5547 -8.5,-2.4142 -6.71419,-2.3315 -21.3793,-6.5453 -26.23317,-7.5377 -2.34676,-0.4799 -7.64183,-1.7779 -11.76683,-2.8845 -19.10313,-5.125 -22.79344,-6.0419 -27,-6.7083 -2.475,-0.3921 -5.4,-1.1885 -6.5,-1.7698 -1.1,-0.5812 -4.475,-1.6251 -7.5,-2.3197 -3.025,-0.6946 -7.525,-1.9126 -10,-2.7067 -4.45899,-1.4306 -15.88106,-4.7182 -25.48055,-7.3339 -5.60819,-1.5282 -10.1238,-5.3333 -9.19659,-7.7496 l 0.60356,-1.5728 4.28679,0.5386 4.28679,0.5386 2.77485,-1.889 C 823.45608,1277.0508 832,1263.737 832,1260.9454 v -1.8651 l -4.25,-1.1645 c -2.3375,-0.6404 -8.75,-2.5332 -14.25,-4.2062 -5.5,-1.673 -12.38472,-3.2496 -15.29938,-3.5036 l -5.29938,-0.4619 -2.44668,2.2986 c -2.90555,2.7296 -2.6094,2.9533 -5.86874,-4.4322 l -2.59915,-5.8895 1.23168,-1.4841 1.23168,-1.4841 6.02499,0.5661 c 3.31374,0.3114 7.59998,1.2243 9.52498,2.0287 1.925,0.8045 5.28407,1.6149 7.46461,1.8009 l 3.9646,0.3383 2.31908,-3.4934 c 1.2755,-1.9214 2.86642,-4.195 3.5354,-5.0524 8.19591,-10.5052 8.05917,-10.9161 -4.78369,-14.3763 -3.3,-0.8891 -8.25,-2.2416 -11,-3.0055 -14.97685,-4.1606 -13.3874,-4.4058 -19.4557,3.0017 -6.33809,7.7369 -11.31781,3.8368 -11.48141,-8.9921 l -0.0629,-4.9312 -3.28951,-0.8577 -3.28952,-0.8576 -0.93243,-2.4524 c -1.19665,-3.1475 -0.48047,-4.9247 2.53888,-6.3004 1.33789,-0.6096 2.7238,-2.3447 3.10354,-3.8855 0.37738,-1.5312 1.70892,-4.136 2.95898,-5.7884 1.25006,-1.6525 2.75377,-4.2694 3.34159,-5.8155 l 1.06876,-2.811 -0.99183,-1.8533 c -0.5455,-1.0193 -2.45807,-2.1586 -4.25014,-2.5318 -4.493,-0.9358 -14.13448,-4.0798 -16.66632,-5.4348 -2.54971,-1.3645 -2.62605,-2.9313 -0.342,-7.0191 l 1.75,-3.1319 -2.69777,-2.3562 c -3.22763,-2.819 -5.58363,-8.0678 -6.97618,-15.542 -0.5636,-3.025 -1.25092,-6.7022 -1.52738,-8.1716 l -0.50265,-2.6716 3.13972,-1.6236 c 1.72684,-0.893 3.88108,-3.1782 4.7872,-5.0784 0.90612,-1.9001 2.0371,-3.4548 2.5133,-3.4548 1.27882,0 3.76376,-6.492 3.76376,-9.8329 v -2.8972 l -6.75,-2.2378 c -11.02979,-3.6568 -13.68534,-6.3039 -12.50712,-12.4674 l 0.54178,-2.8341 7.55652,0.6388 c 4.15608,0.3513 10.15024,1.3665 13.32036,2.256 7.41511,2.0805 12.94818,-2.1059 16.58211,-12.5465 0.30225,-0.8684 1.69276,-2.8164 3.09003,-4.3289 l 2.5405,-2.75 6.56291,-0.033 c 3.6096,-0.018 13.61196,-0.83 22.22747,-1.8048 l 15.66456,-1.7723 4.10284,-2.8432 c 5.35328,-3.7099 10.90222,-9.9061 12.67863,-14.1576 l 1.41625,-3.3896 2.23658,0.035 c 1.23012,0.019 5.83658,0.7053 10.23658,1.5247 4.4,0.8193 11.85904,2.1428 16.57565,2.9411 4.7166,0.7982 11.2416,2.096 14.5,2.8839 3.25839,0.788 9.52435,2.2119 13.92435,3.1642 4.4,0.9524 11.825,2.7046 16.5,3.8939 l 8.5,2.1622 2.5,4.5301 c 4.92625,8.9265 10.43534,12.0379 29,16.3784 6.325,1.4788 15.1,3.7557 19.5,5.0599 4.4,1.3041 12.275,3.3338 17.5,4.5103 5.22501,1.1765 9.98641,2.2707 10.58091,2.4315 0.5946,0.1608 2.3153,3.8232 3.824,8.1386 5.2992,15.1582 8.8398,24.8751 10.1464,27.8463 2.5868,5.8825 6.2206,16.0562 6.9598,19.4853 1.7148,7.9558 2.381,8.3673 22.9889,14.1986 7.7,2.1788 17.6,4.9918 22,6.2511 7.5898,2.1722 19.8938,5.5587 40,11.0093 4.95,1.3419 11.1145,2.7385 13.699,3.1037 l 4.699,0.6638 6.801,-5.6299 c 3.7405,-3.0964 7.3209,-6.047 7.9563,-6.5569 0.6355,-0.5098 3.5605,-2.3962 6.5,-4.1919 2.9396,-1.7957 8.3655,-5.5302 12.0576,-8.299 3.6922,-2.7687 10.1086,-7.5091 14.2588,-10.5341 4.1502,-3.025 9.1788,-6.7375 11.1746,-8.25 l 3.6287,-2.75 h 4.1091 c 2.26,0 7.4856,1.0809 11.6125,2.4021 4.1269,1.3211 10.8784,3.4196 15.0034,4.6633 4.125,1.2437 13.7963,4.4743 21.4918,7.1792 l 13.9917,4.9178 14.0083,-1.1886 14.0082,-1.1887 3.5,-2.2969 c 1.925,-1.2632 4.9877,-3.6876 6.806,-5.3873 7.147,-6.6811 12.5175,-6.3814 52.194,2.9123 6.875,1.6103 16.8727,3.8932 22.217,5.073 5.3444,1.1798 10.5194,2.7363 11.5,3.4588 l 1.783,1.3136 -1.8618,3.4858 c -1.0239,1.9172 -4.5002,6.7231 -7.7251,10.6797 -6.823,8.3714 -7.6537,11.3421 -5.7913,20.712 l 1.3418,6.7503 4.5182,4.2234 c 2.485,2.3229 6.0932,5.0212 8.0182,5.9963 1.925,0.975 4.5173,2.6479 5.7606,3.7176 1.2433,1.0696 3.7785,2.8744 5.6338,4.0105 7.5231,4.6072 11.463,7.5691 13.481,10.1346 l 2.1246,2.7009 0.015,13.1152 c 0.019,16.2453 -0.8471,15.1138 14.5896,19.0607 7.0923,1.8133 14.9201,4.0726 17.3951,5.0207 2.475,0.948 5.7185,1.9542 7.2079,2.236 l 2.7078,0.5123 1.1345,3.4376 c 2.4624,7.4609 1.2265,24.7341 -1.8514,25.8755 -1.5189,0.5633 -5.7897,5.278 -12.6105,13.9211 l -2.3271,2.9488 -3.2073,-2.6988 -3.2074,-2.6988 h -3.2975 c -1.8137,0 -5.2043,-0.6728 -7.5349,-1.495 l -4.2373,-1.495 -2.9651,2.495 c -3.3691,2.8349 -3.084,2.8029 -23.3117,2.6139 -27.1337,-0.2536 -27.3741,-0.315 -26.7683,-6.839 1.076,-11.5873 -1.917,-12.3135 -7.685,-1.8644 -5.479,9.9254 -4.1294,12.3348 8.0935,14.4497 9.577,1.657 23.2277,4.9806 29.0848,7.0814 3.1488,1.1294 6.7488,2.0665 8,2.0825 3.6756,0.047 15.7134,3.6122 17.5683,5.2031 0.9387,0.8051 2.5227,1.754 3.5201,2.1087 2.2018,0.7831 1.341,2.4598 -1.8943,3.6898 -3.4294,1.3039 -17.2094,-1.118 -35.0683,-6.1634 -11.4115,-3.2239 -15.5386,-3.5509 -17.3449,-1.3744 l -1.2391,1.493 0.4019,10.0067 0.402,10.0066 1.4821,1.4822 c 0.8152,0.8152 3.9493,1.9418 6.9647,2.5035 3.0154,0.5617 6.72,1.5245 8.2325,2.1395 l 2.75,1.1182 v 2.1876 c 0,2.6037 -1.5167,4.6008 -5.25,6.9128 -1.5125,0.9367 -2.75,2.3907 -2.75,3.2311 0,0.8404 -1.6875,2.2248 -3.75,3.0765 -2.0625,0.8517 -4.565,2.2734 -5.561,3.1592 l -1.8111,1.6107 -0.9236,-1.4603 c -0.508,-0.8031 -0.9306,-4.2176 -0.939,-7.5878 -0.018,-7.1499 -0.4052,-7.5987 -8.5153,-9.8649 -26.6021,-7.4333 -26.3833,-7.3989 -28.9524,-4.5601 l -1.7624,1.9474 -0.5211,8.3527 -0.5211,8.3527 1.5068,1.5068 c 0.8288,0.8287 4.5991,2.2551 8.3785,3.1698 3.7794,0.9146 9.6707,3.1608 13.0917,4.9916 l 6.2201,3.3286 -5.9704,2.8355 c -3.2837,1.5594 -7.2077,3.9023 -8.72,5.2063 l -2.7497,2.3709 -1.25,-1.696 c -0.6875,-0.9328 -1.25,-2.8902 -1.25,-4.3498 0,-3.2085 -2.7787,-5.951 -6.0787,-5.9995 -2.9336,-0.043 -11.9468,-2.2308 -17.4213,-4.2284 -2.2,-0.8028 -7.0204,-1.7808 -10.712,-2.1733 l -6.712,-0.7137 -0.4827,2.3255 c -0.2655,1.279 -0.757,5.9627 -1.0922,10.4081 l -0.6093,8.0827 1.3041,1.059 c 0.7172,0.5824 3.8643,1.5839 6.9933,2.2256 6.2499,1.2816 13.9601,6.2342 12.2961,7.8982 -1.3854,1.3853 -8.9058,1.6436 -14.0577,0.4828 z M 1273.828,1400.25 c 0.4941,-0.9625 1.1834,-5.6337 1.5318,-10.3803 l 0.6335,-8.6304 -1.5025,-1.247 c -0.8264,-0.6858 -9.2491,-3.4368 -18.7172,-6.1133 l -17.2147,-4.8664 -1.4536,1.4535 c -2.5204,2.5204 -4.191,20.7448 -2.0244,22.0839 1.2615,0.7796 8.327,2.6072 22.7188,5.8765 5.6649,1.2868 10.5774,2.6173 10.9167,2.9566 1.2371,1.2371 4.2361,0.5723 5.1116,-1.1331 z m -56.0855,-14.5 c 0.9183,-1.1625 1.4578,-3.8205 2.9194,-14.3831 l 0.5719,-4.1331 -1.9878,-1.9878 c -1.1832,-1.1832 -5.1771,-2.6815 -9.8669,-3.7017 -4.3335,-0.9426 -11.6508,-2.846 -16.2606,-4.2297 l -8.3814,-2.5158 -2.2504,1.0253 -2.2503,1.0253 -0.496,3.3253 c -0.2728,1.8289 -1.0246,5.9175 -1.6708,9.0857 -1.6017,7.8537 -2.3718,7.2748 17.4304,13.1025 17.1038,5.0336 20.5298,5.5553 22.2425,3.3871 z m 91.0075,-10.5421 c 0.7837,-0.9969 1.25,-4.8553 1.25,-10.3423 v -8.7522 l -2.2225,-1.5567 c -1.2224,-0.8562 -3.2383,-1.5567 -4.4798,-1.5567 -1.2415,0 -3.9538,-0.6386 -6.0275,-1.4191 -2.0736,-0.7806 -8.2154,-2.4388 -13.6484,-3.685 l -9.8782,-2.2657 -1.2054,1.6484 c -0.6629,0.9066 -1.7833,5.5332 -2.4897,10.2813 l -1.2843,8.6328 1.3679,1.3672 c 0.7523,0.7519 6.5429,2.72 12.8679,4.3735 6.325,1.6536 13.525,3.6456 16,4.4268 4.995,1.5765 7.8722,1.2365 9.75,-1.1523 z m -148.9781,-5.4579 c 0.9511,-1.1692 3.705,-10.0865 4.871,-15.7725 l 0.5173,-2.5225 -1.8301,-1.6448 c -1.0065,-0.9046 -8.1301,-3.2995 -15.8301,-5.3219 -18.4597,-4.8483 -17.6508,-4.719 -20.3937,-3.2608 l -2.3937,1.2725 -2.3095,7 c -1.2702,3.85 -2.3306,8.0221 -2.3563,9.2714 l -0.047,2.2715 2.25,0.8976 c 2.8218,1.1258 17.3062,5.3106 25.25,7.2951 7.7249,1.9299 11.0085,2.0676 12.2719,0.5144 z m 94.152,-11.0725 c 1.0191,-2.3773 2.0156,-6.9358 2.2145,-10.13 l 0.3616,-5.8076 -2.5,-1.8564 c -1.375,-1.021 -8.9782,-3.5012 -16.8961,-5.5116 l -14.3961,-3.6552 -2.5839,0.9087 -2.584,0.9087 -1.0991,6.483 c -0.6045,3.5656 -1.418,7.8602 -1.8078,9.5436 l -0.7088,3.0608 2.2879,1.1129 c 2.2704,1.1043 7.2909,2.5617 19.7879,5.7441 3.575,0.9104 7.625,2.0273 9,2.482 1.375,0.4547 3.5285,0.8746 4.7855,0.9331 l 2.2856,0.1064 z m -147.8052,-9.5012 c 0.967,-2.8448 2.0462,-7.093 2.3982,-9.4406 l 0.6401,-4.2682 -5.3285,-1.6734 c -14.7281,-4.6255 -22.919,-6.7873 -27.963,-7.3801 l -5.5571,-0.6531 -2.7457,6.8695 c -1.5101,3.7783 -3.2206,7.4454 -3.8012,8.1492 l -1.0555,1.2796 1.113,2.4428 c 0.6245,1.3707 2.3349,2.7377 3.897,3.1146 1.5312,0.3695 9.534,2.5801 17.784,4.9124 l 15,4.2406 1.9303,-1.2105 c 1.0617,-0.6658 2.7215,-3.538 3.6884,-6.3828 z m 242.6353,5.5737 c 0.5493,-0.6875 1.317,-5.8836 1.7059,-11.547 l 0.707,-10.2969 -1.2059,-1.4531 c -1.9791,-2.3847 -4.921,-1.6908 -6.7575,1.5938 -0.9369,1.6757 -3.615,6.0481 -5.9514,9.7164 l -4.2478,6.6697 1.2478,1.2236 c 0.9907,0.9715 9.9132,4.5822 12.8755,5.2104 0.3451,0.073 1.077,-0.4294 1.6264,-1.1169 z M 1325,1348 c 0,-0.55 -0.7351,-1 -1.6337,-1 -0.8985,0 -2.586,-1.0884 -3.75,-2.4186 -2.0145,-2.3022 -3.5759,-2.9644 -6.3663,-2.6999 -1.3149,0.1246 -1.7943,5.0816 -0.5,5.1693 3.1058,0.2104 9.8283,1.2408 10.1667,1.5583 0.8043,0.7546 2.0833,0.3807 2.0833,-0.6091 z m -128,-2 c 1.1,-1.1 2,-2.6732 2,-3.496 0,-0.8228 0.9409,-4.2149 2.0909,-7.538 l 2.091,-6.0419 -1.2681,-1.528 c -1.8974,-2.2862 -6.4538,-4.3904 -9.6141,-4.44 -1.5399,-0.024 -4.5997,-0.7384 -6.7997,-1.5874 -4.1255,-1.5919 -9.9675,-2.9583 -17.0833,-3.9959 l -4.0832,-0.5953 -1.6668,3.5124 c -0.9167,1.9318 -1.6667,4.6147 -1.6667,5.962 0,1.3473 -0.5062,3.9019 -1.125,5.6768 l -1.125,3.2272 1.0383,2.2787 1.0382,2.2788 9.8368,2.2445 c 5.4102,1.2344 12.7617,3.067 16.3367,4.0723 8.2373,2.3163 7.6518,2.318 10,-0.03 z m 98.9612,-6.9276 c 1.3913,-2.5996 0.5133,-4.4731 -3.5481,-7.5709 -3.8843,-2.9627 -4.0997,-4.4062 -1.4828,-9.9398 2.5192,-5.3272 -0.01,-9.4333 -4.2267,-6.8727 -1.8762,1.1383 -18.009,19.3389 -17.5492,19.7987 0.2074,0.2074 4.195,1.3584 8.8613,2.5578 4.6664,1.1993 9.1593,2.5661 9.9843,3.0372 2.7111,1.548 6.8748,1.0197 7.9612,-1.0103 z M 1048.2429,1336.5 c 0.4946,-1.65 2.0711,-5.4122 3.5033,-8.3605 l 2.6041,-5.3606 -1.0272,-1.6285 c -1.0857,-1.7211 -9.5229,-5.1395 -12.7021,-5.1464 -1.0335,0 -5.0599,-1.1514 -8.9477,-2.5538 -3.8877,-1.4024 -9.3421,-2.6399 -12.1209,-2.75 l -5.0524,-0.2002 -3.8729,7.6924 -3.8728,7.6923 0.6142,2.4474 c 0.6476,2.5802 1.9372,3.3859 7.6315,4.768 10.4465,2.5354 22.2772,5.8438 22.8128,6.3794 0.337,0.337 2.6193,0.4795 5.0718,0.3166 l 4.4591,-0.2961 z m 94.122,-5.75 c 0.776,-1.2375 2.4128,-5.5575 3.6372,-9.6001 l 2.2263,-7.3501 -1.3642,-1.3032 c -0.7503,-0.7169 -4.7392,-2.1992 -8.8642,-3.2941 -4.125,-1.095 -10.836,-2.9125 -14.9134,-4.039 -11.7098,-3.2351 -13.6588,-2.3688 -16.9957,7.555 -3.4782,10.3443 -3.0058,10.9341 11.7917,14.7245 5.7104,1.4627 11.7854,3.2747 13.5,4.0267 1.7146,0.7519 4.5695,1.4039 6.3443,1.4487 l 3.227,0.082 z m 185.4893,-1.0743 c 1.715,-2.0664 8.6605,-15.0763 14.5554,-27.2643 2.9498,-6.0987 7.8565,-15.2243 10.9038,-20.2791 8.3319,-13.8208 8.3487,-13.2228 -0.8291,-29.5348 -2.4455,-4.3464 -4.7331,-8.8464 -5.0836,-10 -0.3505,-1.1536 -1.3136,-2.8682 -2.1403,-3.8103 -0.8266,-0.942 -1.2179,-2.4557 -0.8694,-3.3638 l 0.6336,-1.651 2.2377,1.5444 c 1.2307,0.8494 7.3255,4.7992 13.5438,8.7774 6.2184,3.9782 12.1087,8.2533 13.0895,9.5002 l 1.7834,2.2672 0.8001,18.8192 c 1.3942,32.7932 0.208,30.1402 13.1942,29.5095 l 7.1734,-0.3484 0.4908,-1.279 c 0.56,-1.4593 -0.976,-45.9742 -1.8999,-55.0629 l -0.61,-6 -2.6638,-2.3193 c -1.4651,-1.2756 -8.9876,-6.538 -16.7167,-11.6942 l -14.053,-9.375 -2.1455,-4.8057 c -1.18,-2.6432 -2.424,-5.8183 -2.7644,-7.0558 -0.3715,-1.3503 -1.397,-2.25 -2.5646,-2.25 h -1.9456 l -2.168,4.4625 c -4.5667,9.3995 -10.8756,2.1345 -10.8226,-12.4625 0.026,-7.0887 -4.361,-10.0407 -10.4834,-7.0547 -8.8238,4.3037 -17.8102,8.0547 -19.2965,8.0547 -0.8647,0 -3.5477,0.9564 -5.9624,2.1253 l -4.3904,2.1254 -1.1109,-1.1109 -1.111,-1.111 5.3044,-10.9836 c 3.2311,-6.6905 5.0532,-11.6382 4.6617,-12.6585 l -0.6428,-1.675 -17.726,0.8853 c -9.7494,0.4869 -20.8761,0.8753 -24.7261,0.8632 l -7,-0.022 -10,-3.3333 c -5.5,-1.8334 -12.925,-4.2487 -16.5,-5.3674 -3.575,-1.1187 -8.8794,-2.8673 -11.7875,-3.8857 -2.9081,-1.0184 -6.0755,-1.8517 -7.0386,-1.8517 -0.963,0 -3.5163,-0.9 -5.6739,-2 -5.6419,-2.8764 -11.0689,-1.4713 -15.5,4.0131 -0.427,0.5286 -5.4143,3.8872 -11.1173,7.4869 -0.8714,0.55 -3.5639,2.47 -5.9835,4.2667 -2.4196,1.7968 -7.8897,5.7803 -12.1558,8.8524 -10.6656,7.6803 -10.8294,9.4318 -1.9947,21.3277 4.6103,6.2076 5.6832,6.2493 14.2513,0.5532 3.7229,-2.475 7.2478,-4.5 7.833,-4.5 0.5852,0 2.2779,-1.125 3.7615,-2.5 1.4837,-1.375 3.1631,-2.5 3.7322,-2.5 0.5691,0 4.2894,-2.25 8.2674,-5 8.3335,-5.761 9.7128,-6.0172 12.1088,-2.25 0.962,1.5125 2.3256,3.1116 3.0301,3.5536 0.7046,0.442 2.2394,2.692 3.4107,5 1.1713,2.308 3.0806,5.3773 4.243,6.8207 1.1623,1.4434 3.0133,3.8896 4.1133,5.436 1.1,1.5464 3.0734,4.1028 4.3854,5.6809 l 2.3853,2.8692 -1.0317,2.1948 c -1.0905,2.3198 -7.8761,9.8342 -28.1305,31.1525 -22.7115,23.9042 -22.8274,24.1864 -13.6374,33.1973 l 6.4711,6.345 h 2.2789 2.2789 l 14.5,-14.8988 c 42.2237,-43.3851 41.6034,-42.6235 42.5296,-52.2089 0.3398,-3.5174 1.2597,-9.0191 2.0442,-12.2261 0.7844,-3.2069 1.4262,-7.3694 1.4262,-9.25 V 1199 h 1.8 c 2.3474,0 4.2,1.9082 4.2,4.326 0,1.0594 3.0922,8.2819 6.8716,16.05 3.7793,7.7682 8.0823,16.824 9.5622,20.124 1.4799,3.3 3.5626,7.6642 4.6284,9.6981 2.7478,5.2439 2.8944,4.9287 -7.5031,16.1306 -5.1924,5.5942 -10.7049,11.8401 -12.25,13.8797 -1.545,2.0396 -5.3966,6.5895 -8.5591,10.1109 -7.1773,7.9917 -7.1684,8.1556 0.8752,16.1204 7.6806,7.6054 9.0181,7.8855 13.4205,2.8103 2.9951,-3.4529 17.9844,-19.3485 37.2939,-39.5488 l 7.8395,-8.2012 -0.5644,-4.2065 c -1.4642,-10.911 10.184,5.5288 12.0456,17.0008 l 0.5461,3.3649 -2.6295,4.9204 c -1.4463,2.7062 -4.4343,8.2954 -6.6401,12.4204 -3.752,7.0166 -5.3184,10.4898 -9.9913,22.1541 l -1.8645,4.6542 2.5104,2.5103 c 1.3807,1.3807 5.2999,3.652 8.7095,5.0472 7.3693,3.0156 7.1638,2.9841 8.5533,1.3099 z M 1262.75,1328.75 c -0.2292,-0.6875 -0.7917,-1.25 -1.25,-1.25 -0.4583,0 -1.0208,0.5625 -1.25,1.25 -0.2292,0.6875 0.3333,1.25 1.25,1.25 0.9167,0 1.4792,-0.5625 1.25,-1.25 z m -18.3321,-5 c 0.7238,-1.7875 1.6183,-4.523 1.9879,-6.0789 l 0.6719,-2.8288 -7.8054,-7.9322 -7.8054,-7.9321 -7.3691,-2.0854 -7.3691,-2.0854 -2.19,1.1721 c -5.0265,2.6901 -9.7802,14.5336 -8.0375,20.0246 l 0.6277,1.9777 6.6856,1.8996 c 18.098,5.1424 24.8814,6.9035 26.9865,7.0064 l 2.3011,0.1124 z m -254.09826,0.7875 c 1.6628,-1.6628 7.68036,-15.6457 7.68036,-17.8467 0,-1.5879 -1.80201,-2.3653 -13,-5.6084 -4.125,-1.1947 -9.525,-2.825 -12,-3.623 -2.475,-0.7979 -6.66362,-1.5652 -9.30805,-1.7051 l -4.80805,-0.2543 -3.94195,7.41 c -3.85257,7.242 -4.66026,10.4685 -3.17664,12.6901 0.81416,1.2191 18.04788,6.3756 21.52933,6.4418 1.21295,0.023 3.78036,0.9042 5.70536,1.9581 4.20481,2.302 9.31257,2.5446 11.31964,0.5375 z m 95.29086,-7.3028 c 1.4867,-0.9836 3.6215,-5.4922 5.9297,-12.5236 l 1.9004,-5.789 -1.0169,-1.6122 c -0.5594,-0.8868 -3.021,-2.1577 -5.4704,-2.8243 -2.4493,-0.6666 -9.765,-2.6816 -16.257,-4.4777 l -11.8037,-3.2656 -2.0039,0.8942 c -1.7572,0.784 -4.476,6.0658 -8.0847,15.7057 l -1.064,2.8423 1.88,1.7828 c 2.0904,1.9823 10.5319,5.0327 13.9272,5.0327 1.2051,0 5.5124,1.105 9.5719,2.4555 7.7572,2.5806 10.6559,2.9935 12.4914,1.7792 z m 105.1844,-7.2704 0.2949,-2.5186 -8.6218,-6.9729 c -4.742,-3.835 -10.9132,-9.3353 -13.7139,-12.2228 -8.9605,-9.2382 -10.8826,-7.8479 -14.3799,10.4017 l -0.604,3.1516 2.3649,1.5177 c 2.3512,1.5088 17.3421,6.026 25.7827,7.769 2.4298,0.5018 4.6579,1.1523 4.9513,1.4457 1.2851,1.2852 3.6561,-0.2677 3.9258,-2.5714 z m -256.62364,-1.6193 c 1.00581,-0.9102 1.82874,-2.197 1.82874,-2.8595 0,-0.6625 1.40964,-3.9378 3.13254,-7.2784 4.04811,-7.8492 3.83233,-8.1913 -7.26135,-11.5134 -5.15415,-1.5434 -11.39619,-3.4211 -13.87119,-4.1726 -2.475,-0.7515 -6.14039,-1.6674 -8.14531,-2.0354 l -3.6453,-0.669 -2.43777,1.5973 c -2.76645,1.8126 -10.26976,15.8456 -9.51874,17.8023 0.27099,0.706 3.13745,2.0913 6.36991,3.0783 3.23247,0.987 8.66155,2.6745 12.06463,3.75 3.40307,1.0755 7.45307,1.987 9,2.0257 1.54692,0.039 3.71258,0.457 4.81258,0.9297 3.15129,1.3542 5.69077,1.1373 7.67126,-0.655 z m 498.19254,-1.8506 c 0.574,-1.4958 -0.075,-15.0117 -0.9202,-19.1647 l -0.4417,-2.1704 -3.251,-0.6778 c -1.788,-0.3728 -4.2869,-1.3344 -5.5531,-2.1369 -1.271,-0.8055 -3.9586,-1.3215 -6,-1.1519 l -3.6978,0.3073 -0.01,9.8884 c -0.011,11.6131 0.4658,12.5292 7.6772,14.7636 6.9389,2.1499 11.4534,2.2766 12.1956,0.3424 z m -401.4282,-4.4599 c 0.9923,-0.5311 2.8363,-3.5686 4.0978,-6.75 1.2615,-3.1815 2.7046,-6.3222 3.2069,-6.9795 2.8397,-3.7156 -0.5409,-7.083 -9.2403,-9.2041 -2.475,-0.6034 -8.775,-2.2415 -14,-3.6401 -11.3139,-3.0285 -13.5868,-2.6939 -15.67676,2.308 -0.84973,2.0337 -2.39507,4.7784 -3.4341,6.0993 -4.07296,5.1779 -2.16462,10.479 4.11086,11.4193 4.6297,0.6938 18.9698,5.0234 21.5,6.4914 2.4589,1.4266 7.0169,1.5501 9.4356,0.2557 z m 106.1,-6.3197 c 0.02,-0.1181 1.317,-4.0398 2.883,-8.7148 l 2.8474,-8.5 -0.8484,-1.6196 c -0.4666,-0.8907 -2.5514,-2.0803 -4.633,-2.6435 -2.0815,-0.5631 -8.2528,-2.2418 -13.714,-3.7304 -15.8089,-4.3091 -19.1345,-3.5312 -21.3486,4.9935 -0.5715,2.2 -1.6331,5.4739 -2.3593,7.2754 l -1.3204,3.2755 1.0878,1.7244 c 1.4985,2.3757 13.495,6.0325 29.8699,9.105 3.2152,0.6033 7.3482,-0.036 7.5356,-1.1655 z M 877.11468,1293.75 C 879.82744,1291.4847 886,1280.2501 886,1277.5778 v -2.6207 l -2.25,-0.9108 c -1.2375,-0.501 -4.95,-1.6606 -8.25,-2.5768 -3.3,-0.9162 -9.44188,-2.723 -13.64862,-4.0151 l -7.64863,-2.3492 -3.65298,1.0087 -3.65298,1.0086 -3.46439,5.4157 c -1.90541,2.9787 -3.88671,6.5265 -4.40289,7.8842 l -0.9385,2.4684 1.7045,1.9488 c 1.70623,1.9508 13.94669,6.1021 18.35973,6.2265 1.28962,0.036 4.81976,0.9067 7.84476,1.9339 6.60149,2.2417 9.12436,2.412 11.11468,0.75 z m 100.79895,-10.1245 c 2.81279,-4.0882 5.97852,-11.2877 6.40123,-14.5577 0.10588,-0.819 -1.31319,-1.9631 -3.31486,-2.6725 -5.26255,-1.8649 -26.07618,-7.5798 -29.50029,-8.1 l -3.00029,-0.4558 -2.13986,2.3302 c -6.45764,7.0322 -9.79471,17.2922 -6.10956,18.7841 3.88029,1.5709 16.01353,5.0456 17.66841,5.0598 0.86987,0.01 4.28159,0.8664 7.58159,1.9088 8.50855,2.6875 9.05367,2.5867 12.41363,-2.2969 z m 104.77497,-0.4119 c 1.47,-0.9347 7.3114,-15.3218 7.3114,-18.0077 0,-3.0692 -2.1894,-4.2224 -13.7351,-7.2344 -5.9207,-1.5446 -12.0317,-3.2951 -13.58,-3.8899 -4.3621,-1.676 -7.2743,-1.298 -10.4247,1.3529 l -2.8933,2.4345 -1.2606,4.8155 c -3.2696,12.4898 -2.4084,13.6376 11.8937,15.8513 2.475,0.383 5.3915,1.1657 6.4811,1.7392 4.5015,2.3693 14.3068,4.1471 16.2075,2.9386 z m 165.5614,-5.0199 c 4.3901,-5.4853 4.6968,-7.8052 1.2401,-9.3802 l -2.5099,-1.1435 -2.3921,2.2472 c -1.3156,1.236 -2.904,4.2802 -3.5296,6.7649 l -1.1376,4.5177 1.1127,1.3406 c 1.5477,1.865 2.894,1.0541 7.2164,-4.3467 z M 921.30081,1271.75 c 0.92568,-0.6875 2.6366,-3.05 3.80204,-5.25 1.16543,-2.2 2.7757,-5.2349 3.57838,-6.7441 1.72563,-3.2448 1.41839,-6.7572 -0.68123,-7.7881 -3.10354,-1.5238 -25.51848,-7.3112 -29.97527,-7.7394 l -4.64296,-0.4462 -4.69089,7.3465 c -6.13105,9.602 -5.44901,14.8713 1.92491,14.8713 1.43868,0 4.70118,0.6858 7.25,1.5241 18.57135,6.1078 20.44599,6.4458 23.43502,4.2259 z m 248.65029,-8.7017 c 7.261,-7.1609 7.9374,-8.4827 5.7989,-11.3308 -1.3842,-1.8435 -8.7925,-4.7175 -12.1604,-4.7175 -1.1874,0 -4.7196,-0.9 -7.8493,-2 -3.1297,-1.1 -7.3013,-2 -9.2703,-2 h -3.5801 l -2.3587,5.3335 c -1.2973,2.9334 -2.6676,7.3935 -3.0452,9.9113 l -0.6865,4.5777 2.3503,1.5052 c 1.2926,0.8279 5.2752,2.2015 8.8502,3.0524 5.6729,1.3504 7.8013,1.7341 13.7011,2.4701 0.6605,0.082 4.373,-2.9785 8.25,-6.8019 z m -139.6278,2.2017 c 1.2916,-2.0625 3.0497,-5.775 3.9068,-8.25 0.8571,-2.475 1.8568,-5.2295 2.2216,-6.1211 1.1219,-2.7419 -1.9352,-4.5321 -11.6479,-6.821 -5.1171,-1.2059 -10.4288,-2.7953 -11.8038,-3.5321 -2.1575,-1.1561 -7.8005,-1.9394 -11.6897,-1.6227 -1.57702,0.1284 -9.3103,14.9647 -9.3103,17.8616 v 2.2677 l 3.25,1.4525 c 1.7875,0.7988 8.2,2.6442 14.25,4.1008 6.05,1.4566 11.675,3.032 12.5,3.5009 0.825,0.4689 2.5069,0.8663 3.7375,0.883 l 2.2374,0.03 z m 231.7926,-4.5 c 5.2015,-4.3398 8.193,-10.864 6.252,-13.6352 -2.6974,-3.851 -15.3679,6.346 -15.3679,12.3678 0,2.0164 7.0443,2.9958 9.1159,1.2674 z m -139.7442,-5.0352 c 0.7545,-1.2181 2.2032,-5.5236 3.2195,-9.5677 l 1.8477,-7.353 -1.8068,-1.3211 c -1.5996,-1.1698 -30.3788,-8.5101 -33.2608,-8.4834 -0.6208,0.01 -1.6807,1.4729 -2.3553,3.2604 -0.6747,1.7875 -2.0793,5.3584 -3.1213,7.9354 -3.7648,9.31 -2.6413,10.4755 14.2144,14.7458 6.265,1.5872 12.5159,3.3238 13.8909,3.8591 2.9391,1.1443 5.3921,0.1209 7.3717,-3.0755 z m -257.15902,1.3944 c 4.60146,-1.7494 12.34443,-17.0011 9.53732,-18.786 -2.73641,-1.74 -12.37331,-5.3142 -14.34004,-5.3186 -1.14952,0 -5.62205,-0.9079 -9.93895,-2.012 -10.78161,-2.7575 -11.80056,-2.1421 -19.4995,11.7767 l -2.36148,4.2693 1.44498,1.4269 c 0.79475,0.7848 8.41999,3.2229 16.94499,5.418 8.525,2.1951 15.58321,4.0193 15.6849,4.0538 0.1017,0.034 1.2392,-0.3381 2.52778,-0.8281 z m 113.25127,-6.8413 c 1.39483,-2.0527 2.53605,-4.0826 2.53605,-4.5109 0,-0.4284 0.94878,-2.7972 2.1084,-5.2642 2.97899,-6.3375 -3.1643,-11.3773 -14.05257,-11.5282 -1.40571,-0.02 -3.68083,-0.6786 -5.05583,-1.4646 -1.375,-0.786 -4.20162,-1.4451 -6.28138,-1.4646 l -3.78139,-0.035 -0.54077,1.75 c -1.14078,3.6917 -2.20586,4.7665 -5.20274,5.25 l -3.09916,0.5 -3.64527,4.2734 c -5.30632,6.2208 -4.39637,7.4171 8.05071,10.5844 3.3,0.8398 9.15,2.4268 13,3.5269 3.85,1.1 8.44628,2.0259 10.21395,2.0577 l 3.21395,0.058 z m 90.03395,-7.2656 c 2.3879,-2.6386 5.6919,-11.6218 5.8646,-15.9452 l 0.1375,-3.4429 -5.5,-1.6862 c -3.025,-0.9274 -9.3518,-2.8655 -14.0595,-4.3071 -4.7078,-1.4415 -9.7474,-2.6209 -11.1992,-2.6209 h -2.6395 l -2.3951,3.25 c -1.3172,1.7875 -3.4048,5.8065 -4.639,8.9312 l -2.2441,5.6811 0.9599,1.7154 c 1.0963,1.9589 9.4822,5.4109 13.2165,5.4404 1.375,0.011 5.875,1.0997 10,2.4195 9.349,2.9914 10.2643,3.0328 12.4979,0.5647 z m 125.1139,-4.7523 c 2.6702,-3.1625 6.0998,-6.943 7.6215,-8.4012 4.7334,-4.5359 3.8056,-5.5612 -7.8536,-8.678 -11.0344,-2.9498 -13.3678,-2.7933 -19.8122,1.3292 -3.0093,1.925 -5.8879,3.5 -6.397,3.5 -0.5091,0 -1.4858,0.675 -2.1705,1.5 -2.3801,2.8678 -9.998,-0.1214 -10.0008,-3.9243 -4e-4,-0.5916 -1.5686,-2.8373 -3.4849,-4.9903 -1.9162,-2.1531 -3.7296,-4.6281 -4.0298,-5.5 -1.0167,-2.9538 -7.6213,-6.9725 -13.33,-8.1108 -3.11,-0.6202 -7.9045,-1.7381 -10.6545,-2.4842 -2.75,-0.7462 -7.7,-2.0836 -11,-2.972 -3.3,-0.8885 -8.925,-2.4589 -12.5,-3.4897 -13.4122,-3.8675 -29.0781,-7.9857 -46,-12.0924 -4.675,-1.1345 -10.9055,-2.7458 -13.8455,-3.5807 l -5.3454,-1.518 -6.6546,2.0398 c -3.66,1.1219 -11.942,3.4767 -18.4045,5.2328 l -11.75,3.1931 v 1.3253 c 0,1.8135 3.8877,4.2122 8.0523,4.9681 5.0675,0.9198 14.295,3.5332 15.4477,4.3751 0.55,0.4017 3.475,1.2464 6.5,1.8772 3.025,0.6308 7.975,1.8482 11,2.7055 7.0068,1.9858 15.5064,4.2522 35.5,9.4662 19.5279,5.0926 30.6413,8.0867 40.5,10.9114 4.125,1.1818 9.525,2.5545 12,3.0504 2.475,0.4958 7.0763,1.8276 10.225,2.9595 3.1488,1.1319 6.5238,2.0562 7.5,2.054 0.9763,0 5.6,1.1636 10.275,2.5908 16.4829,5.0318 28.0717,8.0265 32.1285,8.3024 0.8957,0.061 3.8132,-2.4767 6.4833,-5.6392 z M 921,1238.5 c 0,-0.8333 -0.88889,-1.5 -2,-1.5 -1.99224,0 -2.60112,1.0655 -1.33333,2.3333 1.21793,1.218 3.33333,0.6891 3.33333,-0.8333 z m -22.03212,-5.9613 1.21277,-1.4613 -0.99973,-3.2887 c -0.54986,-1.8088 -1.25354,-5.7292 -1.56375,-8.7121 -0.31021,-2.9829 -1.05792,-5.9079 -1.66158,-6.5 l -1.09756,-1.0766 -2.03928,2.497 c -1.12161,1.3733 -3.31782,5.0297 -4.88046,8.1252 l -2.84117,5.6284 1.21388,1.66 c 0.66763,0.9131 3.23328,2.2891 5.70144,3.0579 5.74314,1.7888 5.53092,1.7866 6.95544,0.07 z m 119.17862,-5.896 c 1.4476,-2.3966 2.9414,-5.7664 3.3196,-7.4886 0.3783,-1.7221 1.1032,-3.3879 1.6108,-3.7016 4.2857,-2.6487 -0.107,-6.4999 -9.6275,-8.4408 -9.1899,-1.8735 -16.09394,-3.7511 -18.47141,-5.0235 -1.19035,-0.637 -3.18047,-0.9032 -4.42248,-0.5915 l -2.25822,0.5668 -2.31089,4.7682 c -1.271,2.6226 -2.91289,5.9627 -3.64865,7.4226 -0.73576,1.4599 -1.33775,3.7785 -1.33775,5.1526 v 2.4983 l 7.25,2.1469 c 3.9875,1.1808 10.4,3.061 14.25,4.1783 3.85,1.1172 7.45,2.1844 8,2.3715 0.55,0.1871 1.9033,0.3757 3.0073,0.4192 l 2.0073,0.079 z m -148.72829,-3.2497 c 0.86999,-0.3338 1.58179,-1.1705 1.58179,-1.8592 0,-0.6888 1.35,-3.7821 3,-6.8741 1.65,-3.0921 3,-6.7554 3,-8.1408 V 1204 h -1.78076 c -1.04965,0 -2.23347,1.1993 -2.88341,2.9212 l -1.10265,2.9213 -4.36659,0.5322 c -2.40162,0.2927 -9.9153,1.1679 -16.69705,1.9449 l -12.33046,1.4127 -1.46973,1.4698 -1.46973,1.4697 1.33448,1.1075 c 0.73397,0.6092 4.01905,1.5485 7.30019,2.0874 3.28114,0.5389 7.76571,1.6369 9.96571,2.44 4.1664,1.5209 13.1823,2.1362 15.91821,1.0863 z m 57.42198,-1.7889 c 4.58711,-0.7458 8.95005,-1.9743 9.69543,-2.73 l 1.35524,-1.3741 -1.85582,-12 c -1.91502,-12.3827 -6.50293,-44.4103 -7.54814,-52.6925 l -0.59219,-4.6924 2.30265,-1.4939 c 1.26645,-0.8216 5.45264,-2.4783 9.30264,-3.6815 3.85,-1.2032 11.5,-3.6561 17,-5.451 5.5,-1.7948 11.8,-3.5591 14,-3.9206 l 4,-0.6573 1.61994,1.2946 c 0.89097,0.712 2.07967,3.0946 2.64156,5.2946 0.96302,3.7705 3.97285,11.5539 10.24752,26.5 1.68663,4.0175 3.67528,7.0421 5.20694,7.9193 l 2.4781,1.4194 8.40294,-2.3497 c 4.6217,-1.2924 9.0557,-2.9373 9.8533,-3.6554 l 1.4504,-1.3057 -1.1215,-4.764 c -1.3361,-5.6755 -5.6837,-18.6019 -8.8333,-26.2639 -2.6406,-6.4236 -7.91786,-20.5058 -8.89677,-23.7408 l -0.67807,-2.2408 -5.68553,-1.6033 c -3.12704,-0.8818 -9.28553,-2.6756 -13.68553,-3.9863 -4.4,-1.3108 -11.6,-3.1178 -16,-4.0156 -4.4,-0.8979 -8.45,-1.971 -9,-2.3847 -0.55,-0.4137 -3.21354,-1.0412 -5.91899,-1.3944 l -4.91899,-0.6422 -8.08101,-4.6849 C 929.13646,1089.7303 924.15,1086.5543 922.5,1085.2493 914.57145,1078.9784 907.55245,1074 906.63966,1074 c -0.55592,0 -2.02936,-0.9569 -3.27433,-2.1265 -1.24496,-1.1696 -2.90837,-1.8791 -3.69647,-1.5767 l -1.4329,0.5499 -1.71266,9.3193 c -2.60148,14.1558 -3.64049,15.282 -8.2072,8.896 -8.19394,-11.4582 -11.41843,-15.8413 -13.63042,-18.528 l -2.44194,-2.9661 -2.43129,1.1078 c -1.49874,0.6829 -3.67869,3.6416 -5.68343,7.7138 -1.78868,3.6333 -4.10898,7.0646 -5.15622,7.6251 l -1.90407,1.019 -1.39403,-2.7668 c -0.76671,-1.5217 -1.71835,-4.1143 -2.11475,-5.7612 -1.3247,-5.5037 -3.34386,-6.6992 -6.34294,-3.7556 -2.36901,2.3252 -8.20112,6.6654 -10.81294,8.0468 -1.15277,0.6098 -6.10277,1.5991 -11,2.1986 -4.89724,0.5994 -9.80407,1.2346 -10.90407,1.4116 -1.1,0.1769 -5.825,0.8621 -10.5,1.5226 -14.18646,2.0042 -12.74793,0.9426 -23.61088,17.4236 -2.48438,3.7692 -4.88929,7.8192 -5.34423,9 -0.45494,1.1807 -2.45115,4.4985 -4.43603,7.3727 -1.98487,2.8742 -3.60886,5.5235 -3.60886,5.8872 0,0.3637 -2.04333,3.7628 -4.54074,7.5536 -5.18459,7.8698 -5.25321,7.4481 1.99486,12.2591 3.00178,1.9924 5.72916,4.0617 6.06085,4.5984 0.33168,0.5367 1.68528,0.9758 3.008,0.9758 h 2.40493 l 2.53605,-3.7321 c 1.39483,-2.0527 2.53605,-4.0545 2.53605,-4.4484 0,-0.3939 3.76226,-6.4905 8.36058,-13.5479 4.59832,-7.0574 9.12821,-14.3161 10.06642,-16.1304 2.05876,-3.9812 6.71496,-6.1368 13.29088,-6.1529 2.63017,-0.01 10.85712,-0.714 18.28212,-1.5723 7.425,-0.8583 16.0875,-1.8071 19.25,-2.1085 l 5.75,-0.5479 v 1.5252 c 0,0.8388 -2.08592,2.8054 -4.63537,4.3702 -5.25989,3.2283 -6.2476,3.8853 -16.50229,10.9765 -10.53143,7.2825 -11.83917,9.6779 -9.97077,18.2631 0.55125,2.533 1.49984,10.0054 2.10799,16.6054 1.99821,21.6861 4.21303,39.9289 5.1454,42.3813 l 0.91658,2.4108 8.71923,-0.5727 c 15.03006,-0.9871 14.32889,1.6319 10.09855,-37.7194 -0.67995,-6.325 -1.26846,-13.0709 -1.3078,-14.9908 l -0.0715,-3.4909 6.10905,-3.0091 c 3.35998,-1.6551 8.08498,-3.8648 10.5,-4.9105 5.90836,-2.5583 9.57206,-4.3268 21.5942,-10.424 5.61178,-2.8461 10.66576,-5.1747 11.23106,-5.1747 0.5653,0 3.9061,-1.4193 7.424,-3.1541 3.55417,-1.7526 7.11224,-2.8793 8.00774,-2.5357 l 1.61158,0.6184 -1.00761,2.6503 c -0.9437,2.4821 -1.95761,3.9685 -7.77126,11.3928 -1.26568,1.6163 -3.65931,5.4838 -5.31918,8.5943 l -3.01795,5.6555 0.53735,3.6393 c 4.29033,29.0567 6.23616,41.3609 8.79901,55.6392 l 3.05137,17 2.43108,2.25 c 1.3371,1.2375 2.74349,2.241 3.12532,2.23 0.38183,-0.011 4.44733,-0.6301 9.03443,-1.3759 z m 37.83723,-6.9429 c 1.00242,-1.2863 3.37302,-5.5634 5.26799,-9.5046 l 3.44541,-7.1658 -1.09624,-1.0962 c -1.54744,-1.5475 -14.06129,-4.8307 -18.54458,-4.8655 L 950,1192 l -0.11842,1.75 c -0.14031,2.0735 -0.22428,1.345 1.13763,9.8703 1.37417,8.6019 2.81518,11.6107 5.98079,12.4877 4.38674,1.2154 5.81219,0.9467 7.67742,-1.4468 z m -147.72071,-5.109 1.2016,-1.4479 -0.71234,-9.1058 -0.71234,-9.1059 -1.61681,-1.9955 C 813.38374,1185.7581 800.87276,1182 795.48499,1182 h -3.15026 l -2.98889,3.75 c -1.64389,2.0625 -4.30671,6.1403 -5.91737,9.0617 l -2.92847,5.3118 2.27286,1.867 c 1.25007,1.0269 7.32875,3.0428 13.50818,4.4798 6.17942,1.437 11.90664,3.0372 12.72714,3.5559 2.24657,1.4203 6.59139,1.1612 7.94853,-0.474 z m 74.97664,-13.9719 1.17823,-1.4197 -1.1219,-6.3303 c -0.61704,-3.4817 -1.65465,-8.1303 -2.30579,-10.3303 l -1.18389,-4 h -2 -2 l -3,5.646 c -1.65,3.1054 -3.83368,6.5668 -4.85262,7.6922 -2.70014,2.9821 -1.76807,4.2283 5.41595,7.2414 7.70342,3.231 8.35217,3.3296 9.87002,1.5007 z m 87.3657,-12.4474 C 978.85595,1173.5032 970,1172.7549 970,1182.3472 v 3.3472 l 2.25,1.1077 c 1.2375,0.6093 3.375,1.0156 4.75,0.9028 l 2.5,-0.2049 z m -23.7513,-4.7789 c 1.34874,-1.4553 2.45225,-3.1602 2.45225,-3.7886 0,-0.6284 0.9,-2.9078 2,-5.0654 1.1,-2.1576 2,-4.9624 2,-6.2329 v -2.31 l -2.25,-0.8949 c -1.2375,-0.4922 -4.4504,-1.4586 -7.13977,-2.1477 l -4.88977,-1.2527 -1.40482,1.9191 c -0.84237,1.1507 -1.15284,2.92 -0.77545,4.4191 0.34616,1.375 0.95897,5.5726 1.3618,9.328 0.97345,9.0751 3.91793,11.1274 8.64576,6.026 z m -143.06968,-6.3298 1.78805,-1.9757 -0.49453,-7.7059 -0.49453,-7.7059 -3.15431,-2.8183 c -1.73486,-1.5501 -4.1597,-2.8234 -5.38853,-2.8294 -1.22882,-0.01 -3.83143,-0.2753 -5.78358,-0.5983 l -3.54937,-0.5873 -4.70063,7.9604 c -7.05854,11.9535 -6.86245,12.4902 5.79936,15.8744 10.40329,2.7806 13.73811,2.8612 15.97807,0.386 z m 74.77629,-11.2742 c 0.54725,-1.4606 -0.90897,-14.3821 -1.77958,-15.7908 -0.85765,-1.3877 -5.10772,-1.1777 -6.65335,0.3287 -0.72679,0.7084 -3.12143,2.0798 -5.32143,3.0475 -6.37708,2.8053 -6.98275,3.2536 -7.30532,5.4082 l -0.30533,2.0393 6.80533,2.5199 c 3.74292,1.386 7.48032,2.7493 8.30532,3.0296 2.79813,0.9508 5.78411,0.6727 6.25436,-0.5824 z M 740,1331.5197 c -9.51106,-2.7507 -32.77044,-8.8531 -38.5,-10.1009 -8.82355,-1.9216 -31.3985,-8.0139 -44,-11.8744 -14.41061,-4.4147 -28.54123,-8.3716 -36,-10.081 -3.3,-0.7563 -7.96908,-2.07 -10.37573,-2.9193 -2.40665,-0.8492 -5.33165,-1.5469 -6.5,-1.5503 -1.16835,0 -6.84927,-1.3982 -12.62427,-3.0996 -5.775,-1.7014 -12.3,-3.5131 -14.5,-4.0261 -2.2,-0.5129 -6.7,-1.7935 -10,-2.8457 -3.3,-1.0522 -7.9656,-2.4193 -10.368,-3.038 l -4.368,-1.125 0.54332,-5.1797 c 1.11602,-10.6394 3.69669,-30.1152 4.18988,-31.6202 0.42425,-1.2946 31.74947,-32.3784 64.3982,-63.902 4.18253,-4.0384 13.0046,-12.6345 19.6046,-19.1025 6.6,-6.4679 14.59226,-14.0763 17.76059,-16.9074 L 665.02117,1139 H 667.51059 670 v 6.3508 c 0,3.4929 0.48571,7.7441 1.07935,9.447 0.60265,1.7287 0.71306,3.7223 0.25,4.5139 -2.18353,3.7326 -7.90252,10.0264 -19.57935,21.5473 -15.54524,15.3376 -15.85937,17.7194 -2.60497,19.7515 2.39523,0.3672 5.63581,1.314 7.20129,2.1041 1.56547,0.79 4.94047,1.8199 7.5,2.2886 19.91169,3.6465 32.57812,10.9655 24.40368,14.1012 l -2.75,1.0548 -8,-2.1278 c -4.4,-1.1702 -10.025,-2.7661 -12.5,-3.5464 -9.59784,-3.0256 -21.74936,-6.4063 -27.1913,-7.5647 l -5.69131,-1.2116 -3.06906,1.2713 c -1.68799,0.6992 -6.31553,4.3791 -10.28343,8.1776 l -7.21436,6.9063 1.0523,1.6682 c 0.57876,0.9176 3.94239,2.4146 7.47473,3.3268 3.53234,0.9121 12.04743,3.0939 18.92243,4.8482 6.875,1.7544 13.85,3.6687 15.5,4.2539 1.65,0.5852 6.375,1.8276 10.5,2.7607 4.125,0.9332 8.48292,2.2325 9.68426,2.8875 1.20134,0.6549 3.32973,1.1908 4.72976,1.1908 1.40003,0 4.24211,0.6294 6.31574,1.3987 2.07363,0.7693 7.06987,2.4126 11.10276,3.6519 l 7.33251,2.2533 0.91749,2.4131 c 1.40065,3.684 1.19288,4.032 -2.67713,4.4838 -3.83353,0.4476 -15.58316,-1.5673 -18.90539,-3.242 -1.94013,-0.978 -11.71561,-3.5832 -24,-6.3962 -3.3,-0.7557 -10.725,-2.8176 -16.5,-4.582 -5.775,-1.7645 -12.75,-3.7692 -15.5,-4.455 -2.75,-0.6859 -7.475,-1.9452 -10.5,-2.7986 -3.025,-0.8535 -7.68063,-2.051 -10.34585,-2.6611 l -4.84585,-1.1095 -3.90415,3.9042 -3.90415,3.9041 v 2.5791 2.5791 l 3.75,0.9846 c 2.0625,0.5415 9.6,2.402 16.75,4.1345 11.40264,2.7628 33.85098,8.9506 49,13.5065 2.75,0.8271 7.25,1.9094 10,2.4051 2.75,0.4958 7.025,1.7637 9.5,2.8177 2.475,1.0541 6.3,2.1993 8.5,2.545 2.2,0.3458 9.04891,2.2277 15.21979,4.1821 l 11.21979,3.5534 3.03021,4.4043 c 1.66662,2.4223 3.03021,4.87 3.03021,5.4393 0,0.5692 1.26762,2.5132 2.81694,4.3198 3.12566,3.6448 7.18306,11.1018 7.18306,13.2016 0,2.7791 9.67228,15.7887 17.71933,23.8332 l 2.75086,2.75 -4.9851,-0.089 c -2.7418,-0.049 -7.01009,-0.6751 -9.48509,-1.3909 z m -32,-73.5787 c 0,-0.5825 0.45,-0.7809 1,-0.441 0.55,0.3399 1,0.8165 1,1.059 0,0.2426 -0.45,0.441 -1,0.441 -0.55,0 -1,-0.4766 -1,-1.059 z m 711,-174.5032 c -10.175,-2.4906 -20.975,-4.965 -24,-5.4987 -18.2833,-3.2252 -28.0004,-6.2333 -27.999,-8.6677 9e-4,-1.6767 17.0202,-25.1766 27.607,-38.1193 2.6906,-3.2893 7.2192,-8.8317 10.0636,-12.3164 2.8444,-3.4846 7.3753,-9.7107 10.0686,-13.8357 2.6934,-4.125 5.5719,-8.175 6.3967,-9 0.8248,-0.825 3.0534,-3.525 4.9525,-6 1.899,-2.475 7.7395,-9.9 12.9787,-16.5 5.2393,-6.6 14.8306,-19.12714 21.3141,-27.83808 6.4835,-8.71095 12.4107,-16.58595 13.1715,-17.5 2.0837,-2.50332 10.4852,-13.29789 14.4463,-18.56102 1.925,-2.55777 5.975,-7.71036 9,-11.45019 3.025,-3.73983 8.65,-11.23154 12.5,-16.64824 3.85,-5.4167 8.3876,-11.45818 10.0835,-13.42551 1.6959,-1.96733 6.8169,-8.52696 11.3799,-14.57696 11.2695,-14.94208 12.2859,-16.26084 16.9551,-22 12.0009,-14.75096 19.972,-27.47469 21.3611,-34.09727 l 1.083,-5.16308 -1.4685,-3.86983 -1.4685,-3.86982 -3.4628,-1.19356 c -6.2538,-2.15557 -15.6795,-1.35597 -62.4369,5.29666 -26.718,3.80143 -26.9415,3.96404 -28.0394,20.3969 -0.3859,5.775 -1.339,14.55 -2.118,19.5 -2.6845,17.05676 -5.1461,34.01544 -5.8063,40 -0.364,3.3 -1.3316,10.725 -2.1503,16.5 l -1.4884,10.5 -3.5589,9.23407 c -4.9112,12.74289 -8.3762,17.31015 -27.8927,36.76593 -4.9654,4.95 -14.8984,15.075 -22.0732,22.5 -7.1748,7.425 -15.8918,16.2 -19.3711,19.5 -3.4793,3.3 -8.4055,8.475 -10.947,11.5 -2.5415,3.025 -5.7368,6.6584 -7.1008,8.0743 -1.3639,1.4159 -7.0045,7.2659 -12.5346,13 -5.5302,5.7341 -11.3802,12.0443 -13,14.0226 -23.1899,28.3213 -28.5763,31.79 -44.2478,28.4949 -7.3514,-1.5458 -20.9068,-4.1618 -31.5082,-6.0806 -7.9402,-1.4372 -9.0441,-2.249 -8.1114,-5.965 l 0.6884,-2.7431 9.6656,-7.7002 c 10.0225,-7.9846 10.6827,-8.5434 17.9571,-15.198 2.4139,-2.2083 6.0139,-5.1983 8,-6.6446 1.9861,-1.4464 6.0861,-4.9631 9.1111,-7.815 3.025,-2.8519 7.975,-7.18886 11,-9.63765 6.5532,-5.30492 10.1846,-8.44483 18.3672,-15.8812 3.373,-3.06545 8.8328,-7.7313 12.1328,-10.36856 6.1675,-4.92887 14.8629,-12.49003 23.8753,-20.76088 2.8186,-2.58665 8.9641,-7.98665 13.6566,-12 4.6926,-4.01336 10.7284,-9.92956 13.413,-13.14712 l 4.8811,-5.85011 -0.1833,-30.64989 C 1404.042,871.29245 1403.7442,855.025 1403.481,852 c -0.2632,-3.025 -0.7062,-14.82252 -0.9844,-26.21671 l -0.5059,-20.7167 8.6636,-9.53778 c 4.765,-5.24578 9.354,-10.54826 10.1978,-11.78329 2.4078,-3.52452 12.8343,-15.35344 22.2358,-25.2267 17.4104,-18.28416 28.9168,-31.37301 28.8968,-32.87103 -0.01,-0.63129 -0.4412,-1.82279 -0.9617,-2.64779 l -0.9463,-1.5 -15.9723,-0.3179 -15.9722,-0.31791 -1.1718,-1.41187 -1.1717,-1.41188 5.8556,-8.61517 c 6.4622,-9.50742 6.173,-9.05283 12.0395,-18.92527 2.2878,-3.85 8.6787,-13.525 14.202,-21.5 5.5233,-7.975 12.279,-17.7379 15.0126,-21.69534 2.7337,-3.95744 8.874,-13.63244 13.6451,-21.5 4.7711,-7.86756 9.0019,-14.52966 9.4017,-14.80466 0.8908,-0.61279 7.9218,-11.1785 10.2568,-15.41327 2.6365,-4.78174 2.2969,-6.19823 -5.6051,-23.376 -4.0716,-8.85129 -7.9535,-17.80719 -8.6264,-19.90199 -2.5667,-7.99109 -4.3792,-8.62484 -11.596,-4.0546 -10.073,6.37898 -13.0521,8.59309 -20.0168,14.87671 -18.6881,16.86049 -19.552,16.96913 -26.7901,3.36915 -7.1722,-13.47628 -20.9442,-40.10181 -26.6381,-51.5 -3.1597,-6.325 -8.0365,-15.55 -10.8375,-20.5 -2.8009,-4.95 -5.6079,-10.575 -6.2377,-12.5 -0.6298,-1.925 -1.9486,-4.53363 -2.9306,-5.79696 -0.982,-1.26333 -2.0931,-3.69764 -2.4691,-5.40958 -0.376,-1.71195 -2.2575,-5.57297 -4.1811,-8.58005 -1.9236,-3.00707 -4.8392,-8.33478 -6.4792,-11.83934 -3.2134,-6.8668 -3.8284,-7.60859 -5.4375,-6.55809 -0.9726,0.63493 -6.532,17.28733 -7.8013,23.36737 -1.0569,5.06304 -2.2982,4.93125 -31.5555,-3.35027 -5.775,-1.63466 -12.075,-3.58017 -14,-4.32336 -7.0631,-2.72684 -29.2423,-9.10294 -37,-10.63679 -2.475,-0.48935 -7.2,-1.76932 -10.5,-2.84437 -13.5058,-4.39983 -19.2814,-6.16214 -24.6963,-7.53552 -3.1329,-0.79461 -9.6579,-2.77983 -14.5,-4.41159 -4.842,-1.63175 -12.1787,-3.86767 -16.3037,-4.9687 -4.125,-1.10103 -11.55,-3.32153 -16.5,-4.93444 -4.95,-1.61292 -13.275,-4.12652 -18.5,-5.58579 -5.225,-1.45926 -11.975,-3.3682 -15,-4.24209 -12.1188,-3.50097 -14.679,-4.22128 -19,-5.34563 -2.475,-0.64402 -5.875,-1.39757 -7.5556,-1.67458 l -3.0556,-0.50364 -1.3173,1.58726 -1.3173,1.58727 2.2095,5.24944 c 1.2152,2.8872 3.5033,8.17445 5.0845,11.74945 1.5813,3.575 4.4348,10.55 6.3413,15.5 3.5356,9.18016 5.7242,14.35212 10.583,25.00875 1.5068,3.30481 3.0826,7.12981 3.5018,8.5 0.4193,1.37019 1.349,3.16625 2.0661,3.99125 0.7171,0.825 1.6243,2.85 2.016,4.5 0.3917,1.65 1.4018,3.79331 2.2446,4.76291 1.8849,2.1685 2.0102,7.6177 0.2009,8.73592 -1.5569,0.96219 -2.9504,0.75171 -13.0019,-1.96384 -13.8205,-3.73378 -35.4363,-9.15089 -42.0759,-10.54457 -3.6168,-0.75918 -8.5668,-2.07355 -11,-2.92082 -5.4676,-1.90385 -10.3223,-1.99968 -11.7887,-0.2327 l -1.1096,1.3369 1.5473,7.9131 c 0.8509,4.3522 2.6071,13.0881 3.9026,19.4131 1.2955,6.325 3.4059,17.575 4.6899,25 l 2.3344,13.5 -0.2118,10.80315 -0.2118,10.80316 -3.5306,10.19684 -3.5306,10.19685 -4.0607,3.87569 -4.0607,3.8757 0.3031,2.1243 0.3031,2.12431 2.5,0.25059 c 6.7161,0.67318 19.0838,3.64551 20.0593,4.82082 l 1.0995,1.3249 -1.3294,2.45794 c -0.7312,1.35186 -3.659,5.5377 -6.5062,9.30184 -2.8473,3.76415 -6.4473,8.56809 -8,10.67542 -1.5528,2.10733 -4.4035,5.70733 -6.3349,8 -1.9315,2.29267 -5.0568,6.41849 -6.9452,9.16849 -1.8883,2.75 -8.633,11.89192 -14.9882,20.31538 -6.3552,8.42346 -12.4549,16.65747 -13.5549,18.29781 -1.1,1.64034 -3.35,4.7234 -5,6.85125 -2.854,3.68054 -11.5002,15.44245 -26.2869,35.75946 -3.6922,5.07314 -11.2704,15.22564 -16.8404,22.56111 -5.5701,7.33547 -12.26378,16.45971 -14.87495,20.2761 -2.61117,3.81639 -5.80438,8.19667 -7.09603,9.73396 -1.29164,1.53728 -2.8938,4.61529 -3.56034,6.84002 l -1.2119,4.04495 1.26493,3.15998 c 0.69571,1.73799 2.55157,7.65998 4.12415,13.15998 2.6455,9.25254 5.3944,18.52045 11.56754,39 1.3263,4.4 3.1259,11.15 3.9992,15 0.8732,3.85 2.45,8.8 3.504,11 1.0539,2.2 1.915,4.53251 1.9135,5.18335 0,0.65084 1.382,5.60084 3.0746,11 1.6926,5.39916 3.9569,12.74165 5.0318,16.31665 1.0749,3.575 2.9059,9.65 4.0688,13.5 1.163,3.85 3.3464,10.375 4.8522,14.5 1.5058,4.125 4.159,13.01617 5.896,19.75816 1.7371,6.74198 5.1908,18.34065 7.675,25.77481 l 4.5166,13.51664 -0.3089,3.71688 -0.3089,3.71691 -1.916,0.3636 c -1.0537,0.2 -3.5287,-0.1262 -5.5,-0.7248 -3.795,-1.1525 -18.2967,-4.12552 -44.54957,-9.13321 l -15.96558,-3.0454 -2.21495,-2.08084 c -1.25502,-1.17903 -2.48468,-3.87549 -2.83733,-6.2218 -0.34232,-2.27752 -1.2614,-7.29095 -2.04241,-11.14095 -0.78101,-3.85 -2.09759,-10.825 -2.92573,-15.5 -1.85389,-10.4655 -7.58832,-38.36527 -10.37961,-50.5 -1.13863,-4.95 -3.02227,-13.95 -4.18588,-20 -5.49267,-28.55838 -7.06674,-36.47187 -8.45366,-42.5 -0.82252,-3.575 -1.95822,-9.2 -2.52378,-12.5 -0.56555,-3.3 -1.71838,-8.475 -2.56184,-11.5 -2.03803,-7.30924 -4.61447,-22.05286 -5.15512,-29.5 l -0.43559,-6 3.32352,-4.38488 c 1.82794,-2.41169 4.44853,-6.05125 5.82353,-8.08793 1.375,-2.03668 5.65,-8.32404 9.5,-13.97192 3.85,-5.64787 7.80747,-11.62292 8.79438,-13.27788 0.98691,-1.65496 2.42843,-3.64306 3.20338,-4.41801 C 965.98553,735.87162 972,728.31477 972,727.6768 c 0,-0.33947 2.3625,-4.02128 5.25,-8.1818 2.8875,-4.16052 6.18784,-9.13388 7.33409,-11.0519 1.14625,-1.91803 3.2401,-4.71487 4.653,-6.21521 2.82158,-2.9962 35.76291,-52.03132 35.76291,-53.23521 0,-2.23072 -12.573,-6.78592 -19.1849,-6.95069 -0.9267,-0.0231 -2.9171,-0.51048 -4.4232,-1.08309 l -2.73828,-1.04109 1.42318,-1.34923 c 0.7828,-0.74208 5.9232,-3.72655 11.4232,-6.63217 5.5,-2.90561 12.7,-6.78966 16,-8.63121 3.3,-1.84156 8.3625,-4.45792 11.25,-5.81413 2.8875,-1.35622 5.25,-3.08584 5.25,-3.8436 0,-2.31163 -3.8113,-6.3833 -6.6396,-7.09316 -1.4693,-0.36875 -9.4639,-4.30689 -17.7659,-8.75142 -8.302,-4.44453 -16.8945,-8.94427 -19.0945,-9.99943 -2.2,-1.05515 -5.35,-2.63387 -7,-3.50826 -1.65,-0.87438 -15.78173,-8.04851 -31.40385,-15.9425 L 933.69229,554 h -3.44493 -3.44494 l -2.88707,3.09061 c -4.43298,4.74553 -4.70254,7.41622 -5.34029,52.90939 -0.32768,23.375 -0.81821,48.125 -1.09006,55 -1.08667,27.48189 -2.45304,95.45717 -2.97494,148 -0.3032,30.525 -0.76104,64.5 -1.01742,75.5 -0.25637,11 -0.73098,34.175 -1.05469,51.5 l -0.58854,31.5 -1.3821,1.42167 -1.38209,1.42168 -6.29261,-1.06607 c -12.46214,-2.11128 -28.50765,-5.23852 -39.78492,-7.75401 l -11.49232,-2.56345 -2.00768,-2.00927 -2.00769,-2.00926 0.13767,-13.72064 c 0.87457,-87.16148 1.59721,-129.89883 2.37943,-140.72065 0.51682,-7.15 1.17577,-35.275 1.46434,-62.5 0.28857,-27.225 0.74317,-57.15 1.01023,-66.5 0.59994,-21.00453 1.36246,-72.37894 2.04083,-137.5 0.2836,-27.225 0.76661,-51.525 1.07336,-54 2.90362,-23.42805 8.92783,-33.22586 21.31556,-34.66777 l 4.57858,-0.53294 6.5,3.46579 c 18.45933,9.84248 24.0557,12.70134 30,15.32522 3.575,1.57805 12.20014,6.14079 19.16698,10.13944 6.96684,3.99864 13.2083,7.27026 13.86991,7.27026 0.6616,0 5.45785,2.53901 10.65832,5.64224 5.20048,3.10323 11.78402,6.61174 14.6301,7.79667 6.32916,2.63509 13.3283,6.23134 16.67469,8.56768 2.39152,1.66968 27.5906,14.82893 52,27.15501 13.079,6.60452 20.5674,6.60654 16.6156,0.004 -0.2193,-0.36634 -0.7154,-11.91608 -1.1024,-25.66608 -0.3871,-13.75 -1.0514,-34.45 -1.4762,-46 l -0.7724,-21 0.9821,-1.24033 c 1.4303,-1.80627 4.1077,-0.99902 19.4484,5.86364 2.3074,1.03218 4.6232,1.87669 5.1462,1.87669 0.5231,0 4.2982,1.58952 8.3891,3.53226 10.0948,4.79402 14.1957,2.74621 8.4218,-4.20553 -1.2912,-1.5547 -2.9787,-4.00267 -3.75,-5.43994 -0.7712,-1.43727 -2.9275,-5.48727 -4.7917,-9 -1.8642,-3.51273 -6.0267,-11.033 -9.25,-16.7117 C 1079.6372,410.4959 1077,405.5498 1077,405.18327 c 0,-0.36654 -1.4938,-2.92033 -3.3195,-5.67509 -7.4432,-11.23063 -10.8189,-16.74243 -11.744,-19.17579 -0.5363,-1.41057 -3.6664,-7.23666 -6.9558,-12.94687 -3.2894,-5.71021 -5.9807,-10.57051 -5.9807,-10.80067 0,-0.23017 -2.925,-5.37619 -6.5,-11.43561 -9.186,-15.56969 -8.748,-16.91581 4.1623,-12.7941 4.3107,1.37624 10.7627,3.43799 14.3377,4.58166 17.0676,5.46006 23.1395,7.22526 31,9.01219 15.9145,3.61784 27.4865,6.87391 35.5,9.98877 4.4,1.71029 11.6,3.95207 16,4.98174 9.1068,2.13111 27.3211,7.25277 48.5,13.63764 7.975,2.40425 19.675,5.72975 26,7.39 11.5216,3.02431 29.5117,8.12658 44.5,12.62088 4.4,1.31936 10.7,3.07816 14,3.90844 3.3,0.83029 10.05,2.65631 15,4.05782 4.95,1.40152 14.1287,3.87973 20.397,5.50714 l 11.3971,2.95892 1.2043,-0.99949 c 0.732,-0.60752 1.4467,-5.41172 1.8225,-12.25041 0.34,-6.188 1.0645,-16.65092 1.61,-23.25092 0.5455,-6.6 1.4739,-23.475 2.0631,-37.5 0.5891,-14.025 1.5065,-28.79506 2.0386,-32.82236 0.5321,-4.0273 0.9674,-10.3498 0.9674,-14.05 0,-9.19141 3.3974,-12.47753 6.0767,-5.87764 1.1292,2.7815 8.702,14.84884 15.0214,23.93671 1.0275,1.4777 4.6504,7.3277 8.0509,13 3.4005,5.67231 7.9081,12.36725 10.0169,14.87765 2.1087,2.51039 3.8341,5.02813 3.8341,5.59496 0,0.56683 1.8952,3.91287 4.2115,7.43564 2.3163,3.52277 5.0241,8.15916 6.0174,10.30309 0.9932,2.14393 3.2606,5.58587 5.0385,7.64876 1.7779,2.06289 4.5419,5.93376 6.1421,8.60195 1.6002,2.66818 6.2189,9.87672 10.2637,16.01897 4.0448,6.14225 8.8105,13.64087 10.5905,16.6636 7.3871,12.54479 18.8642,30.56174 23.04,36.16867 2.4578,3.3 6.8486,10.05 9.7575,15 5.4733,9.31359 11.1576,18.00674 17.9818,27.5 2.1745,3.025 3.9544,6.25536 3.9554,7.17857 9e-4,0.92322 0.7079,2.38482 1.571,3.24802 l 1.5695,1.56944 1.9468,-1.04189 c 1.8862,-1.00945 13.0494,-14.35983 21.6026,-25.83498 2.3036,-3.09054 5.16,-6.74416 6.3477,-8.11916 1.1876,-1.375 2.9719,-4.075 3.9651,-6 0.9932,-1.925 4.7636,-6.58399 8.3785,-10.35331 3.615,-3.76932 8.9938,-10.51932 11.953,-15 C 1538.499,420.28122 1543.7845,414 1546.0233,414 H 1548 l 0.018,8.25 c 0.024,10.78918 -1.7645,50.34919 -3.1084,68.75 -0.5825,7.975 -1.3062,19 -1.6082,24.5 l -0.5492,10 1.9931,2.44786 1.9931,2.44786 6.3805,-1.80946 c 3.5093,-0.99521 13.8056,-4.1925 22.8806,-7.10511 9.075,-2.9126 17.625,-5.51678 19,-5.78706 2.5823,-0.5076 4.9032,-1.27838 16.0248,-5.32187 11.1961,-4.07061 14.0696,-2.83714 9.2262,3.96048 -3.9264,5.51068 -12.251,19.31658 -12.251,20.31765 0,0.96882 -9.3626,16.39058 -13.2042,21.74969 -1.5377,2.14502 -2.7958,4.27459 -2.7958,4.73239 0,1.06532 -6.5888,11.88072 -14.1233,23.1831 -3.2322,4.84855 -5.8767,9.18153 -5.8767,9.62885 0,0.92461 -3.7158,7.08312 -13.043,21.61733 -8.5407,13.3086 -8.4143,13.1036 -11.9796,19.43829 -1.7025,3.025 -3.3327,6.65021 -3.6227,8.05601 l -0.5271,2.55602 1.6064,1.33323 1.6065,1.33324 8.7297,-1.12321 c 4.8014,-0.61777 12.1048,-1.3775 16.2298,-1.6883 4.125,-0.3108 10.2,-0.98271 13.5,-1.49314 30.7832,-4.76143 30.6119,-5.2742 6.25,18.70653 -16.4141,16.1573 -22.5801,22.02684 -39.2803,37.39199 -26.7691,24.62898 -29.5954,31.20717 -11.7967,27.45636 4.3048,-0.90718 12.552,-2.05453 18.327,-2.54965 13.4514,-1.15327 26.758,-2.64673 35,-3.92822 3.575,-0.55586 8.975,-1.01934 12,-1.02998 3.025,-0.0106 9.1,-0.66998 13.5,-1.46523 19.8052,-3.57953 67.1467,-5.23964 74.8807,-2.62582 13.9708,4.72165 18.6128,26.97524 8.1499,39.07017 -0.7137,0.825 -2.2021,3.3 -3.3077,5.5 -1.1055,2.2 -3.0127,4.9 -4.2381,6 -1.2254,1.1 -3.9259,4.49313 -6.0012,7.54029 -2.0753,3.04715 -4.5751,6.19715 -5.555,7 -0.9799,0.80284 -5.4622,6.42498 -9.9605,12.49364 -4.4983,6.06866 -8.8176,11.69366 -9.5984,12.5 -0.7808,0.80634 -3.6255,4.39107 -6.3214,7.96607 -8.2774,10.97631 -14.6901,19.1725 -21.004,26.84551 -3.3243,4.04002 -6.9443,8.60278 -8.0443,10.13946 -3.7862,5.28927 -13.904,18.52158 -16.9493,22.16667 -1.6779,2.0084 -4.4452,5.6084 -6.1497,8 -8.7769,12.31544 -17.6747,23.83873 -21.5545,27.91449 -2.3906,2.51136 -6.8961,7.91136 -10.0123,12 -3.1162,4.08863 -7.8412,10.0031 -10.5,13.14327 -6.2051,7.32845 -9.645,11.96865 -13.8983,18.74745 -1.883,3.00126 -4.043,5.80338 -4.7998,6.22691 -0.7568,0.42354 -4.6581,5.61796 -8.6695,11.54315 -4.0115,5.9252 -7.573,10.99809 -7.9145,11.27309 -0.3416,0.275 -1.6465,1.85 -2.8998,3.5 -4.4616,5.87371 -7.6972,9.83629 -10.9023,13.35188 -1.7875,1.96062 -3.25,3.86592 -3.25,4.23392 0,0.5593 -7.1768,9.5954 -13.8309,17.4142 -0.9362,1.1 -3.7197,4.7 -6.1856,8 -2.4659,3.3 -4.965,6.45 -5.5535,7 -0.5885,0.55 -1.8294,2.2269 -2.7576,3.7264 -0.9281,1.4995 -6.2967,8.6387 -11.93,15.8648 -5.6333,7.2262 -11.5395,14.9993 -13.125,17.2736 -1.5854,2.2744 -4.0604,5.5657 -5.5,7.3142 -1.4395,1.7484 -3.2924,4.1036 -4.1174,5.2337 -0.9218,1.2628 -3.0418,2.2473 -5.5,2.5542 l -4,0.4993 z m -189.6062,-64.155 c -2.6916,-2.0444 -5.3438,-4.0694 -5.8938,-4.4998 -1.7384,-1.3606 -22.8031,-18.82304 -27.5212,-22.81486 -2.4867,-2.10387 -6.3931,-5.31988 -8.6808,-7.14668 -2.2878,-1.8268 -6.2323,-5.07669 -8.7655,-7.22197 l -4.6058,-3.90052 -4.7134,-0.0649 c -5.0346,-0.0693 -19.5231,1.37625 -38.2133,3.81271 -6.325,0.82453 -15.775,1.96321 -21,2.53039 -5.225,0.56718 -12.2,1.41705 -15.5,1.88859 -8.0825,1.15493 -14.2767,-6.3082 -14.5439,-17.52312 -0.024,-1.01345 -0.646,-3.41763 -1.3819,-5.34263 -0.7358,-1.925 -3.178,-8.675 -5.4269,-15 -2.249,-6.325 -5.2272,-14.60356 -6.6182,-18.3968 -1.391,-3.79324 -2.5291,-7.70844 -2.5291,-8.70046 0,-1.74218 -2.2112,-9.01448 -11.5852,-38.10207 -2.4281,-7.53463 -4.4311,-14.73463 -4.4511,-16 -0.02,-1.26537 -1.74,-7.25067 -3.8222,-13.30067 -6.4872,-18.84889 -12.8901,-38.50135 -16.7002,-51.25779 l -3.6611,-12.25778 1.5953,-2.43479 c 2.4131,-3.68281 7.9003,-8.99041 21.1245,-20.43287 13.3898,-11.5858 24.0559,-21.13914 35.3945,-31.70194 4.183,-3.89685 15.9305,-14.48946 26.1055,-23.53913 10.175,-9.04968 20.9072,-18.68635 23.8493,-21.41483 9.3098,-8.63378 9.852,-8.54225 23.5735,3.98008 5.5425,5.05807 12.1523,10.74056 14.6886,12.62777 2.5362,1.8872 11.2228,9.05628 19.3034,15.93128 8.0806,6.875 18.043,15.2 22.1386,18.5 4.0955,3.3 11.609,9.44916 16.6965,13.6648 l 9.2501,7.66481 8.5,3.83519 8.5,3.8352 50.6522,0.16247 50.6522,0.16246 1.9643,1.05128 1.9643,1.05128 1.1982,9.78625 c 2.1687,17.71372 7.0517,53.68106 8.0487,59.28626 0.5381,3.025 1.4506,10.675 2.0279,17 0.5772,6.325 1.901,16.675 2.9417,23 1.0407,6.325 2.2074,16.95794 2.5926,23.62875 l 0.7004,12.12875 -2.0202,1.87125 c -1.1112,1.02919 -3.6692,2.99625 -5.6844,4.37125 -2.0153,1.375 -6.21,4.525 -9.3215,7 -3.1115,2.475 -8.6754,6.75 -12.3643,9.5 -16.4212,12.2418 -31.3442,24.12815 -43.9815,35.03186 -1.4462,1.2478 -3.5785,2.77662 -4.7384,3.39738 -1.1599,0.62076 -6.7397,4.82813 -12.3997,9.34971 -5.6599,4.52158 -13.8776,10.92105 -18.2616,14.22105 -4.384,3.29999 -11.657,8.92499 -16.1623,12.49999 -17.6332,13.9923 -16.1187,13.4449 -22.9148,8.2828 z m 104.5486,-140.60918 c -0.3997,-2.94579 -1.4255,-6.70708 -2.2794,-8.35842 -0.8539,-1.65134 -1.8413,-5.43531 -2.1941,-8.40882 -0.7367,-6.20924 -8.6994,-41.12221 -10.9568,-48.04059 -0.8317,-2.54882 -1.5121,-6.26132 -1.5121,-8.25 0,-2.22623 -0.7343,-4.35014 -1.9109,-5.52665 l -1.9108,-1.91086 -6.3392,-0.56032 c -8.0437,-0.711 -67.3863,-2.59869 -87.8391,-2.79418 l -15.5,-0.14815 -4,-4.11654 c -2.2,-2.26409 -6.7,-7.65738 -10,-11.98507 -3.3,-4.3277 -9.1753,-11.51477 -13.0562,-15.97128 -7.0126,-8.05265 -14.1336,-17.03123 -23.5936,-29.74832 -2.719,-3.65506 -5.8285,-6.877 -6.9102,-7.15985 l -1.9666,-0.51428 -3.9466,3.15986 c -4.4442,3.5582 -11.5916,9.0159 -16.3271,12.46727 -1.7412,1.26908 -4.7485,3.61805 -6.6828,5.21994 -4.3251,3.58185 -14.7661,11.47041 -20.358,15.38131 -2.2874,1.59976 -6.6339,4.99834 -9.6589,7.55239 -3.025,2.55406 -7.3,5.94461 -9.5,7.53458 -11.6169,8.39566 -11.593,8.1329 -2.3752,26.10954 3.9186,7.64215 8.1895,15.98719 9.4909,18.54454 l 2.3661,4.64972 4.6805,3.10028 c 7.692,5.09496 10.8026,3.97853 17.3245,-6.2179 4.5932,-7.18109 8.4075,-12.75044 15.9143,-23.23657 l 5.4011,-7.54475 1.9219,0.29975 1.9218,0.29975 5.0112,9.5 c 2.7561,5.225 5.5769,10.175 6.2685,11 0.6916,0.825 4.454,8.12272 8.3609,16.21715 l 7.1035,14.71715 2.5666,0.64416 2.5665,0.64417 17.2385,-10.28446 c 9.4811,-5.65645 19.3865,-11.82766 22.012,-13.7138 l 4.7736,-3.42934 2.5192,0.63228 c 1.3856,0.34776 2.7807,1.40638 3.1002,2.35249 0.3196,0.94611 1.8265,4.4202 3.3487,7.7202 1.5222,3.3 4.9335,11.625 7.5807,18.5 5.8005,15.06459 11.5816,26.18304 14.0728,27.06558 l 1.8312,0.64874 7.2189,-3.7727 c 3.9704,-2.07498 9.1454,-5.08689 11.5,-6.69314 5.3221,-3.63059 13.6263,-8.68429 20.5881,-12.52934 2.9188,-1.61211 7.5766,-4.45841 10.3505,-6.32512 6.1718,-4.1533 13.8425,-3.28492 13.8425,1.56706 0,0.44876 3.0716,5.4786 6.8258,11.17742 3.7542,5.69883 9.1953,14.0502 12.0914,18.55862 5.3804,8.37594 6.7608,9.67924 8.6674,8.18341 l 1.0847,-0.85093 z m 258.696,47.82638 0.5756,-1.5 h -2.088 -2.0879 l -0.6376,-2.54029 -0.6375,-2.5403 1.7948,-1.98333 c 2.3315,-2.57617 3.1339,-1.59249 3.927,4.81392 l 0.65,5.25 h -1.036 c -0.5698,0 -0.777,-0.675 -0.4604,-1.5 z M 1332.5,753.11124 C 1314.3072,748.33798 1294.9177,729.82136 1288.4036,711 l -1.9036,-5.5 0.028,-15 0.028,-15 1.722,-3.87212 c 0.9472,-2.12967 1.7221,-4.94217 1.7221,-6.25 V 663 h -2.4331 -2.433 l -3.817,4.73964 c -2.0993,2.60681 -4.4919,5.47038 -5.3169,6.3635 -2.1517,2.3294 -13.6576,9.39293 -20.1181,12.35065 l -5.5131,2.52399 -10.1014,1.18516 -10.1014,1.18517 -8.833,-1.33337 -8.833,-1.33337 -6.7181,-3.27073 c -18.4174,-8.96646 -31.2511,-23.25615 -35.8795,-39.94986 l -2.2072,-7.96078 -0.062,-8.5 c -0.091,-12.53112 1.5663,-20.39739 6.1107,-29 9.5739,-18.12381 13.8811,-22.31636 32.1416,-31.28611 L 1216.5,563.5 l 15,0.0918 15,0.0918 8,3.35107 c 4.4,1.84309 10.8028,5.32184 14.2284,7.73054 8.3676,5.88362 10.3612,4.11737 6.6478,-5.88954 -0.893,-2.40665 -1.9891,-6.17573 -2.4358,-8.37573 -0.4466,-2.2 -2.2016,-8.5 -3.9,-14 -6.5895,-21.33946 -12.0241,-40.89636 -12.6265,-45.4375 l -0.6298,-4.74753 2.6687,-2.0992 c 1.4678,-1.15456 5.2289,-2.58937 8.358,-3.18847 3.129,-0.5991 7.5464,-1.94264 9.8164,-2.98564 2.27,-1.043 7.2852,-2.20754 11.1449,-2.58786 l 7.0177,-0.69151 0.5688,1.86886 c 1.8238,5.99265 6.8084,33.25001 8.0875,44.2261 0.825,7.079 1.9063,13.94457 2.4027,15.25683 0.4965,1.31226 1.2211,4.86092 1.6102,7.88592 0.3891,3.025 2.245,12.35398 4.1242,20.73107 1.8793,8.37709 3.4193,16.70209 3.4224,18.5 0,1.79791 0.4327,4.84393 0.9548,6.76893 0.5221,1.925 1.2049,5.75 1.5174,8.5 1.161,10.21676 1.4649,10.35343 15.4032,6.9284 10.7359,-2.63811 22.5281,-5.09815 47.119,-9.8298 7.425,-1.42868 16.7753,-3.27282 20.7784,-4.0981 14.8993,-3.0716 14.2298,-3.76684 17.0305,17.68429 2.7134,20.78236 2.133,21.81521 -12.2582,21.81521 -7.6975,0 -13.2614,4.3621 -8.0934,6.34524 9.5935,3.68139 18.4161,34.92388 15.5195,54.95762 l -0.9836,6.80286 -4.4934,9.23658 c -2.4713,5.08011 -6.7394,11.89297 -9.4846,15.13968 l -4.9912,5.9031 -8.262,4.82134 c -4.5441,2.65173 -10.737,5.79302 -13.762,6.98065 l -5.5,2.15932 -15,0.27598 c -8.25,0.15179 -16.35,-0.0782 -18,-0.51113 z m 32.0904,-17.66207 c 8.6202,-3.68371 10.8426,-5.09189 15.9162,-10.08504 6.3271,-6.22683 11.4535,-13.45182 12.5857,-17.73796 0.4542,-1.71939 1.5169,-5.57808 2.3617,-8.57487 l 1.536,-5.44869 -1.6021,-8.55017 c -3.703,-19.76149 -16.7778,-36.65873 -29.8618,-38.59192 -4.1638,-0.6152 -18.6751,2.14641 -26.755,5.09168 -2.3491,0.85628 -7.5093,2.36465 -11.4671,3.35195 -9.363,2.33563 -11.4248,3.79766 -16.8395,11.94059 l -4.5094,6.78154 -1.6883,8.75759 -1.6883,8.75759 1.7759,8.67927 c 3.6827,17.99811 16.5745,31.6376 34.6456,36.65497 l 5.5,1.52706 8.0904,-0.44144 c 4.4497,-0.24279 9.8497,-1.19325 12,-2.11215 z m -21.1498,-24.47304 c -1.6827,-0.514 -5.3358,-3.35811 -8.1179,-6.32024 l -5.0584,-5.38568 -1.2384,-5.16212 c -1.544,-6.43619 -0.7493,-10.85652 3.2143,-17.87963 l 3.0959,-5.48563 4.5277,-2.87141 4.5278,-2.87142 h 7.7275 7.7274 l 2.9711,2.5 c 1.6341,1.375 3.3902,2.5 3.9024,2.5 3.4699,0 9.2263,11.36731 9.258,18.28212 0.038,8.30875 -3.6187,14.01124 -12.978,20.23767 l -3.5,2.32844 -6.5,0.53123 c -3.575,0.29217 -7.8767,0.11068 -9.5594,-0.40333 z m -99.7959,-39.06392 c 16.0702,-4.89419 25.0038,-13.37834 31.6928,-30.09821 L 1278,635.15889 v -6.86935 c 0,-17.27441 -9.3387,-34.47997 -21.9126,-40.37161 -2.5231,-1.18223 -4.8658,-2.59085 -5.2061,-3.13027 -0.3403,-0.53943 -3.4903,-1.59652 -7,-2.34909 -17.9877,-3.85702 -33.6645,0.50464 -45.9421,12.78219 l -5.7548,5.75486 -3.1928,8.26219 -3.1928,8.26219 -0.063,7.5 c -0.077,9.16856 2.11,17.0876 7.355,26.63231 l 3.9193,7.13231 5.2449,3.98546 c 14.8398,11.27634 26.1944,13.78982 41.3896,9.16213 z m -29.367,-29.46109 c -15.7462,-7.8467 -17.7329,-27.45367 -3.9217,-38.70422 l 5.5874,-4.55144 4.9368,-0.67899 4.9368,-0.67898 6.3415,1.57892 6.3415,1.57892 4.0495,4.37757 4.0494,4.37757 1.2006,5.20106 c 3.9,16.89583 -6.4479,30.04847 -23.6407,30.04847 h -4.7661 z M 840.60059,688.33379 C 841.52101,684.50238 842,684.13974 842,687.27432 c 0,1.4342 -0.46804,2.89691 -1.04008,3.25045 l -1.04008,0.64281 z"
           id="path4" />
        <path
           id="path6"
           style="fill:#da292a;fill-opacity:1;stroke:none;stroke-width:5.80001;stroke-linecap:round;stroke-linejoin:round"
           d="m 844.07812,681.68164 a 475.70312,475.70312 0 0 0 -181.43945,373.76756 475.70312,475.70312 0 0 0 475.70313,475.7031 475.70312,475.70312 0 0 0 475.7031,-475.7031 475.70312,475.70312 0 0 0 -22.0996,-143.30662 l -58.8144,75.30078 a 400.60242,400.60242 0 0 1 5.8144,68.00584 400.60242,400.60242 0 0 1 -4.6758,61.0332 L 752.19922,948.79492 a 400.60242,400.60242 0 0 1 91.8789,-165.17383 z m -104.12109,331.67776 779.00777,167.0293 a 400.60242,400.60242 0 0 1 -380.623,275.664 400.60242,400.60242 0 0 1 -400.60157,-400.6035 400.60242,400.60242 0 0 1 2.2168,-42.0898 z" />
      </g>
    </g>
  </g>
</svg>
